<!DOCTYPE svg PUBLIC "-//W3C//DTD SVG 20010904//EN" "http://www.w3.org/TR/2001/REC-SVG-20010904/DTD/svg10.dtd">
<svg version="1.0" xmlns="http://www.w3.org/2000/svg" width="560px" height="560px" viewBox="0 0 5600 5600" preserveAspectRatio="xMidYMid meet">
<g id="layer101" fill="#232916" stroke="none">
<path d="M2475 5585 c-218 -25 -446 -80 -653 -156 -249 -92 -565 -272 -782 -445 -109 -87 -337 -315 -424 -424 -277 -346 -480 -781 -566 -1206 -68 -339 -68 -769 0 -1108 86 -425 289 -860 566 -1206 87 -109 315 -337 424 -424 350 -279 790 -485 1210 -565 215 -41 272 -46 550 -46 280 0 351 6 555 46 422 83 857 287 1205 565 109 87 337 315 424 424 327 410 540 919 601 1435 30 261 16 623 -35 879 -86 425 -289 860 -566 1206 -87 109 -315 337 -424 424 -350 279 -786 483 -1210 566 -257 50 -621 64 -875 35z"/>
</g>
<g id="layer102" fill="#3e492c" stroke="none">
<path d="M2475 5585 c-218 -25 -446 -80 -653 -156 -249 -92 -565 -272 -782 -445 -109 -87 -337 -315 -424 -424 -277 -346 -480 -781 -566 -1206 -68 -339 -68 -769 0 -1108 86 -425 289 -860 566 -1206 87 -109 315 -337 424 -424 350 -279 790 -485 1210 -565 215 -41 272 -46 550 -46 280 0 351 6 555 46 422 83 857 287 1205 565 109 87 337 315 424 424 327 410 540 919 601 1435 30 261 16 623 -35 879 -86 425 -289 860 -566 1206 -87 109 -315 337 -424 424 -350 279 -786 483 -1210 566 -257 50 -621 64 -875 35z m416 -945 l24 -20 -30 2 c-19 2 -31 9 -33 21 -5 23 10 22 39 -3z m59 -45 c0 -8 8 -16 18 -16 16 -1 16 -2 0 -6 -10 -2 -18 -9 -18 -14 0 -6 -4 -7 -10 -4 -5 3 -10 17 -10 31 0 13 5 24 10 24 6 0 10 -7 10 -15z m-1199 -25 c16 0 10 -28 -7 -34 -24 -9 -27 -2 -18 36 5 21 9 27 12 16 2 -10 8 -18 13 -18z m1379 -71 c0 -18 10 -23 38 -20 6 1 12 -7 12 -19 0 -11 -4 -20 -10 -20 -5 0 -10 6 -10 13 0 8 -4 7 -10 -3 -5 -8 -10 -11 -10 -6 0 5 -6 3 -14 -3 -12 -10 -13 -8 -9 8 3 12 1 21 -3 21 -5 0 -9 13 -9 29 0 19 4 27 13 24 6 -3 12 -14 12 -24z m228 -25 c-1 -21 4 -39 13 -45 21 -13 29 -11 29 7 0 8 4 13 9 10 4 -3 7 -24 6 -46 -2 -29 1 -40 10 -37 15 6 13 -41 -3 -68 -10 -18 -11 -17 -12 10 -1 17 -4 24 -7 18 -9 -24 -23 -13 -23 17 0 30 -21 42 -35 20 -4 -6 -1 -9 7 -8 9 2 13 -10 12 -43 0 -32 4 -45 12 -42 6 2 14 -5 17 -16 3 -11 0 -22 -7 -25 -6 -2 4 -9 22 -16 22 -8 30 -16 24 -24 -11 -15 -6 -64 9 -82 11 -14 10 -15 -13 -18 -16 -1 -24 -76 -9 -76 6 0 11 -4 11 -8 0 -15 -37 -52 -44 -45 -9 9 -7 -10 3 -26 5 -7 14 -10 20 -7 6 4 8 12 5 18 -4 6 1 8 15 3 14 -4 21 -2 21 6 0 7 3 9 6 6 4 -4 2 -12 -4 -20 -7 -8 -7 -18 -2 -27 5 -8 5 -19 -1 -26 -10 -12 7 -74 21 -74 5 0 3 -12 -5 -27 -10 -19 -11 -31 -3 -40 6 -8 7 -27 3 -50 -7 -33 -9 -35 -14 -15 -3 13 -10 23 -16 24 -14 0 -35 -63 -29 -89 2 -13 0 -23 -7 -23 -7 0 -9 -9 -5 -24 4 -15 1 -27 -7 -30 -6 -3 -2 -3 11 0 18 4 22 1 22 -18 0 -24 20 -64 20 -41 0 7 7 10 18 7 13 -5 14 -4 3 4 -17 12 -7 42 13 42 10 0 13 6 9 16 -3 9 -13 14 -24 11 -11 -3 -19 -1 -19 5 0 5 9 12 20 15 22 6 23 40 2 36 -17 -4 -15 13 4 31 18 18 24 19 42 7 10 -6 11 -17 5 -42 -11 -46 -9 -74 5 -72 7 2 12 -4 12 -12 0 -8 -6 -14 -12 -12 -8 1 -14 -9 -15 -23 0 -14 -2 -27 -3 -30 -10 -28 -6 -36 15 -33 12 3 29 -2 38 -11 14 -15 16 -14 13 11 -2 16 -4 35 -5 43 -1 13 -2 13 -11 0 -5 -8 -12 -11 -17 -7 -4 4 -2 17 5 28 7 11 11 23 9 27 -2 4 4 15 15 25 10 9 18 13 18 8 0 -5 3 -17 7 -27 5 -13 3 -16 -10 -11 -11 4 -17 1 -17 -8 0 -8 5 -15 10 -15 6 0 16 -11 22 -25 6 -14 18 -25 27 -26 10 0 12 -2 4 -6 -7 -2 -13 -13 -13 -23 0 -13 5 -17 20 -13 12 3 20 0 20 -6 0 -7 5 -9 11 -5 7 4 10 1 7 -7 -3 -8 -10 -15 -16 -15 -7 -1 -16 -2 -22 -3 -12 -1 -14 -71 -2 -71 10 0 7 -127 -3 -152 -8 -19 -35 -25 -35 -7 0 5 -4 7 -10 4 -5 -3 -10 -19 -10 -36 0 -19 -5 -29 -15 -29 -8 0 -15 -7 -15 -15 0 -9 -9 -15 -24 -15 -24 0 -44 -26 -24 -32 5 -2 2 -10 -8 -18 -10 -8 -15 -10 -11 -3 4 6 3 14 -3 18 -17 11 -11 44 11 56 15 8 18 14 10 22 -7 7 -16 6 -28 -5 -28 -23 -43 -30 -43 -19 0 6 7 11 15 11 10 0 15 10 15 28 -1 23 -2 25 -13 11 -11 -15 -14 -14 -31 9 -11 14 -14 22 -8 18 8 -5 10 -2 6 8 -8 21 -21 20 -33 -1 -8 -14 -10 -14 -11 -3 0 11 -3 11 -12 2 -10 -10 -10 -15 2 -22 13 -8 13 -11 1 -22 -11 -11 -13 -11 -6 1 6 11 4 13 -8 8 -10 -3 -17 -2 -17 4 0 6 -4 7 -10 4 -5 -3 -10 -1 -10 5 0 7 -12 9 -30 7 -28 -5 -57 13 -43 26 3 4 -15 7 -40 7 -49 0 -73 -22 -61 -54 7 -18 54 -22 54 -5 0 6 -9 8 -21 4 -15 -5 -19 -4 -15 4 4 6 13 11 21 11 7 0 15 5 17 12 2 6 10 8 16 4 8 -5 11 -21 7 -44 -3 -20 -2 -30 2 -22 3 8 12 20 19 27 9 10 13 5 18 -22 9 -49 -2 -88 -24 -82 -19 5 -78 -39 -61 -45 17 -5 -4 -29 -27 -31 -29 -2 -38 -27 -12 -34 11 -3 20 -12 20 -19 0 -8 7 -14 15 -14 17 0 20 -16 5 -25 -5 -3 -10 -17 -10 -30 0 -38 -15 -37 -29 1 -15 41 -23 43 -39 7 -6 -16 -9 -19 -6 -7 4 17 -1 23 -21 27 -17 3 -23 1 -17 -5 5 -5 7 -18 5 -28 -4 -15 -8 -16 -18 -7 -7 7 -9 14 -5 17 5 3 -2 10 -16 17 -16 7 -22 8 -17 0 4 -6 0 -8 -10 -4 -10 4 -22 0 -29 -9 -7 -9 -20 -24 -30 -34 -9 -10 -13 -22 -10 -26 4 -4 1 -4 -5 0 -7 4 -13 17 -13 29 0 20 0 20 -14 1 -8 -10 -23 -19 -33 -19 -12 0 -17 -6 -15 -17 2 -11 -3 -18 -13 -18 -8 0 -15 6 -15 14 0 22 -27 27 -33 6 -3 -14 -1 -17 11 -13 10 4 13 2 8 -5 -4 -6 -2 -21 4 -33 9 -15 9 -24 1 -32 -8 -8 -11 -8 -11 2 0 7 -5 9 -11 5 -8 -4 -9 1 -4 17 7 22 6 23 -10 8 -15 -15 -20 -15 -56 3 -39 18 -39 18 -61 -1 -11 -11 -24 -18 -28 -16 -13 8 -40 -43 -34 -62 6 -15 4 -15 -9 2 -15 18 -16 19 -17 2 0 -10 -4 -15 -10 -12 -5 3 -15 -6 -22 -20 -7 -15 -17 -24 -25 -21 -8 3 -13 -2 -13 -15 0 -11 -4 -18 -9 -14 -5 3 -8 19 -6 36 3 24 1 30 -10 25 -8 -3 -17 0 -21 6 -4 6 -12 2 -20 -13 -7 -13 -10 -27 -8 -31 3 -5 -1 -8 -9 -8 -22 0 -39 27 -32 50 9 28 -13 26 -25 -2 -5 -13 -9 -17 -9 -9 -1 9 -5 10 -13 3 -7 -5 -48 -12 -91 -15 -42 -3 -83 -9 -90 -14 -8 -7 -25 -2 -52 13 -34 20 -39 29 -13 26 3 -1 11 5 18 13 9 11 7 13 -12 9 -13 -2 -17 -2 -10 2 6 3 12 12 12 20 0 10 -5 12 -12 8 -8 -5 -8 -1 1 10 10 12 27 17 55 16 63 -3 66 -2 66 25 0 15 7 28 18 32 9 3 25 13 34 22 33 31 53 46 60 46 4 0 15 7 25 15 10 8 32 24 48 34 17 11 39 30 50 43 11 13 26 23 33 23 7 0 15 7 18 15 4 8 14 15 24 15 11 0 21 4 25 9 5 9 62 41 72 41 1 0 3 -9 3 -20 0 -25 25 -26 39 -2 10 16 10 16 11 -1 0 -16 2 -17 15 -3 17 16 21 41 5 31 -21 -13 -9 19 16 41 31 29 30 29 37 3 3 -12 10 -18 15 -15 6 3 21 2 34 -3 18 -7 29 -4 46 9 13 11 32 17 47 14 20 -3 25 0 25 15 0 11 5 23 10 26 6 4 8 11 5 16 -9 14 47 19 57 5 3 -5 14 7 24 27 10 20 21 37 26 37 4 0 8 9 8 19 0 11 5 23 10 26 6 3 10 11 10 17 0 7 -10 1 -22 -12 -19 -21 -23 -22 -26 -8 -2 10 -9 15 -18 11 -9 -3 -12 -13 -9 -24 4 -11 2 -19 -4 -19 -6 0 -11 5 -11 11 0 5 -4 7 -10 4 -5 -3 -10 0 -10 9 0 25 12 46 26 46 8 0 11 6 7 17 -5 12 -2 15 9 10 21 -7 31 3 18 18 -7 8 -6 23 1 44 11 32 33 41 43 19 5 -10 7 -10 12 1 5 11 8 11 14 0 6 -8 11 0 15 24 4 22 16 42 27 48 11 6 18 7 15 2 -3 -5 5 -21 18 -35 13 -14 21 -29 18 -32 -4 -3 -1 -6 5 -6 7 0 12 5 12 11 0 20 24 3 31 -22 l6 -24 13 28 c11 22 11 33 2 47 -6 11 -9 25 -6 33 2 7 0 24 -5 38 -6 14 -10 18 -12 9 -1 -8 -2 -19 -4 -25 -1 -5 -3 -21 -4 -35 -1 -20 -3 -22 -11 -10 -8 12 -10 10 -10 -8 0 -14 -4 -21 -11 -17 -7 5 -5 15 5 30 20 30 12 55 -15 48 -15 -4 -22 0 -26 16 -3 11 -10 18 -16 14 -5 -3 -7 -1 -3 5 3 6 2 13 -4 17 -6 4 -7 11 -4 17 4 6 -4 8 -22 4 -33 -7 -56 4 -52 25 2 9 -4 13 -19 11 -23 -3 -31 12 -13 23 16 10 12 28 -5 21 -11 -4 -19 3 -25 20 -13 33 -14 30 21 43 27 9 34 8 45 -7 12 -15 13 -13 12 18 0 19 3 50 7 69 6 25 5 32 -3 27 -7 -4 -17 6 -26 26 -8 18 -15 27 -15 20 -1 -7 -5 -10 -11 -7 -17 11 -11 25 15 37 14 6 25 19 25 30 0 19 -15 24 -25 8 -4 -6 -11 -7 -17 -4 -7 4 -6 9 3 14 7 5 12 22 12 39 0 17 3 31 6 31 3 0 12 4 20 9 12 8 12 12 -2 26 -9 9 -21 14 -26 11 -5 -3 -7 3 -4 13 3 11 11 22 18 24 8 4 10 18 5 50 -5 35 -4 44 7 40 9 -4 13 4 13 27 0 17 -4 29 -9 25 -5 -3 -12 -1 -16 5 -3 5 -1 10 4 10 6 0 11 9 11 20 0 29 -28 14 -32 -18 -2 -14 -9 -27 -17 -30 -9 -3 -11 2 -6 17 4 13 2 23 -7 26 -9 4 -13 25 -13 65 0 50 3 60 18 60 21 0 22 13 2 30 -18 15 -20 53 -3 48 15 -5 48 27 48 47 0 8 5 15 10 15 10 0 13 -25 13 -97 0 -18 3 -33 8 -33 5 0 9 -7 9 -15 0 -9 12 -18 30 -21 23 -5 30 -12 30 -30 0 -30 7 -30 36 2 27 28 31 54 9 54 -8 0 -15 5 -15 11 0 8 -13 10 -38 6 l-39 -5 3 37 c5 78 7 86 13 41 5 -39 9 -45 29 -43 12 2 22 -1 22 -6 0 -6 13 -6 32 0 23 6 34 5 40 -4 6 -9 8 -9 8 1 0 22 18 13 22 -13 4 -19 1 -25 -13 -25 -18 0 -35 -17 -26 -27 13 -12 47 11 53 35 11 51 23 72 39 66 10 -4 15 0 15 10 0 9 -8 16 -19 16 -21 0 -36 26 -21 35 6 4 10 0 11 -7 0 -10 2 -10 6 0 2 6 11 12 18 12 7 0 15 -6 18 -12 3 -9 7 -7 12 4 11 28 25 11 23 -28z m105 -29 c-4 -12 -9 -13 -19 -4 -8 6 -14 18 -14 26 0 11 4 11 20 3 11 -6 17 -16 13 -25z m-1327 -13 c-6 -5 -36 23 -36 34 0 4 9 -1 20 -11 11 -10 18 -20 16 -23z m-376 -267 c-14 -16 -40 -20 -40 -6 0 10 17 19 39 20 11 1 11 -2 1 -14z m1231 -62 c-9 -16 -10 -15 -11 9 0 14 3 35 8 45 6 15 8 14 10 -9 2 -15 -1 -35 -7 -45z m849 27 c6 0 10 -6 8 -12 -6 -18 -60 -16 -66 1 -3 9 0 11 8 6 10 -6 11 -1 6 21 l-8 29 20 -23 c11 -12 25 -22 32 -22z m-2200 -35 c-16 -19 -90 -79 -90 -72 0 7 69 75 82 80 21 8 21 8 8 -8z m2391 -162 c-13 -10 -17 -8 -19 9 -5 27 21 44 29 20 3 -10 -1 -22 -10 -29z m-2191 -56 c0 -7 -6 -22 -14 -33 -14 -18 -15 -18 -22 -1 -4 12 0 23 12 32 24 18 24 18 24 2z m2218 -48 c-2 -15 -11 -23 -30 -25 -30 -3 -36 8 -15 31 20 23 49 19 45 -6z m-1081 -29 c1 -10 -2 -22 -7 -25 -6 -4 -10 7 -10 26 0 34 12 33 17 -1z m601 -30 c1 -42 -14 -46 -16 -4 -2 19 1 34 6 34 5 0 9 -13 10 -30z m576 -74 c4 -18 3 -41 0 -51 -6 -15 -8 -29 -13 -75 -1 -10 -4 -11 -9 -4 -4 6 -15 13 -24 17 -19 7 -25 37 -8 37 5 0 7 7 4 15 -4 10 0 15 11 15 13 0 16 6 13 25 -3 14 -1 25 3 25 5 0 6 7 3 15 -4 8 -2 15 4 15 5 0 13 -15 16 -34z m-564 -65 c0 -5 -7 -14 -15 -21 -12 -10 -19 -10 -27 -2 -9 9 -8 12 5 12 9 0 17 5 17 10 0 6 5 10 10 10 6 0 10 -4 10 -9z m-163 -61 c-1 -22 -17 -28 -17 -7 0 12 9 27 16 27 2 0 2 -9 1 -20z m807 -77 c18 -10 29 -62 17 -82 -5 -7 -14 -10 -20 -7 -6 4 -9 12 -6 17 8 11 -19 51 -28 42 -4 -3 -7 9 -7 29 0 41 11 57 21 29 4 -10 15 -23 23 -28z m6 -122 c-1 -34 -40 -36 -40 -1 0 13 5 17 20 13 11 -3 20 -8 20 -12z m150 -132 c0 -24 -23 -21 -28 4 -2 10 3 17 12 17 10 0 16 -9 16 -21z m37 -81 c-3 -22 -4 -22 -11 -3 -4 11 -11 28 -16 37 -7 12 -5 18 8 20 18 4 26 -17 19 -54z m-1517 42 c0 -5 -4 -10 -9 -10 -5 0 -11 -9 -14 -19 -3 -12 -12 -19 -23 -17 -22 3 -32 26 -11 26 8 0 20 7 27 15 14 17 30 20 30 5z m-90 -62 c-1 -18 -30 -55 -30 -39 0 11 -3 11 -15 1 -23 -19 -18 1 7 27 24 26 38 30 38 11z m476 -114 c-5 -17 -3 -23 4 -19 13 8 13 -5 0 -25 -5 -8 -10 -10 -11 -5 0 6 -4 1 -9 -10 l-9 -20 -1 20 c-1 11 -3 28 -5 38 -2 9 1 17 6 17 5 0 9 7 9 15 0 8 5 15 11 15 7 0 9 -10 5 -26z m-646 -10 c0 -8 -7 -14 -15 -14 -17 0 -18 2 -9 24 7 18 24 12 24 -10z m1813 12 c23 -17 12 -44 -20 -52 -31 -8 -45 11 -30 43 12 26 24 28 50 9z m-1007 -47 c1 -18 -3 -29 -11 -29 -8 0 -17 -9 -20 -20 -3 -11 -13 -20 -21 -20 -11 0 -13 6 -8 23 3 12 11 23 15 25 5 2 6 16 2 30 -6 24 -5 26 10 13 15 -12 17 -11 17 4 0 30 15 6 16 -26z m-236 -7 c0 -4 -9 -13 -21 -20 -19 -12 -19 -11 -9 8 10 19 30 28 30 12z m154 -48 c12 -31 7 -55 -11 -52 -11 2 -22 -6 -28 -19 -10 -24 -29 -30 -40 -13 -3 5 -1 18 4 27 6 10 11 14 11 10 0 -5 5 -5 11 -1 8 4 7 9 -2 15 -9 6 -2 7 19 3 21 -4 32 -3 32 5 0 6 -7 11 -15 11 -8 0 -15 7 -15 15 0 20 26 19 34 -1z m390 -9 c21 -16 15 -18 -21 -9 -13 4 -23 10 -23 15 0 13 23 10 44 -6z m141 -25 c3 -5 -3 -10 -14 -10 -11 0 -23 5 -26 10 -3 6 3 10 14 10 11 0 23 -4 26 -10z m100 1 c3 -5 1 -12 -5 -16 -5 -3 -10 -1 -10 5 0 7 -7 9 -16 6 -8 -3 -12 -2 -9 4 8 13 32 13 40 1z m-785 -42 c0 -16 -2 -18 -14 -7 -7 7 -11 19 -9 25 7 18 23 5 23 -18z m858 19 c6 -1 12 -5 12 -9 0 -3 9 -9 20 -12 11 -3 20 0 20 6 0 6 3 7 6 4 9 -9 -15 -37 -32 -37 -8 0 -14 6 -14 14 0 8 -17 21 -37 30 -21 9 -27 14 -13 11 14 -4 31 -7 38 -7z m-798 -46 c0 -11 -34 -42 -46 -42 -7 0 -14 -4 -16 -10 -2 -6 -9 -6 -18 0 -12 7 -9 14 15 38 18 16 37 27 48 24 9 -2 17 -7 17 -10z m-130 -82 c0 -5 7 -6 17 -3 10 4 14 2 10 -4 -8 -12 -85 -28 -94 -20 -5 5 45 36 60 37 4 0 7 -4 7 -10z m667 -45 c13 -14 7 -25 -14 -25 -8 0 -11 5 -8 10 3 6 0 13 -9 16 -8 3 -17 12 -20 20 -5 12 -2 12 17 3 12 -7 27 -18 34 -24z m529 0 c-4 -14 -10 -25 -15 -25 -10 0 -9 14 4 43 11 25 19 13 11 -18z m-1336 -26 c0 -6 -6 -17 -14 -25 -18 -17 -29 4 -12 23 14 15 26 16 26 2z m-78 -43 c16 5 19 2 16 -13 -2 -13 -11 -17 -28 -15 -17 2 -38 -8 -64 -32 -22 -19 -45 -32 -53 -29 -7 3 -13 0 -13 -7 0 -6 -4 -9 -9 -5 -5 3 -12 -4 -16 -14 -3 -11 -15 -23 -26 -26 -10 -4 -19 -12 -19 -19 0 -7 -8 -21 -18 -32 -10 -11 -17 -25 -14 -32 2 -7 0 -12 -5 -10 -4 1 -24 -6 -43 -17 -19 -10 -45 -19 -58 -21 -19 -2 -23 2 -20 19 2 12 12 23 26 27 13 3 23 10 24 15 1 18 22 40 61 64 20 12 37 28 38 34 0 8 2 8 6 0 8 -22 21 -14 27 15 7 29 55 58 81 49 7 -3 19 1 25 8 7 8 15 13 19 11 4 -3 13 10 21 27 11 24 15 28 18 14 3 -13 9 -16 24 -11z m938 -1 c0 -8 -4 -15 -9 -15 -13 0 -22 16 -14 24 11 11 23 6 23 -9z m-1170 -27 c0 -21 0 -21 -15 -2 -15 18 -16 17 -10 -13 4 -18 2 -34 -5 -38 -18 -11 -24 3 -9 22 12 15 12 16 -2 11 -9 -3 -22 -3 -29 2 -9 5 -4 12 16 23 41 21 54 20 54 -5z m1180 -34 c0 -29 -23 -29 -28 1 -3 10 0 15 7 11 6 -4 11 -2 11 3 0 6 2 11 5 11 3 0 5 -12 5 -26z m-33 -61 c-4 -3 -1 -13 6 -21 11 -13 9 -14 -10 -1 -27 16 -30 29 -6 29 9 0 13 -3 10 -7z m-1537 -468 c0 -8 -4 -15 -10 -15 -5 0 -10 7 -10 15 0 8 5 15 10 15 6 0 10 -7 10 -15z"/>
<path d="M3280 4333 c0 -22 -2 -25 -10 -13 -8 12 -10 9 -10 -12 0 -16 3 -28 8 -28 14 1 42 49 36 64 -10 25 -24 18 -24 -11z"/>
<path d="M3245 4243 c5 -10 8 -26 9 -35 0 -10 4 -18 10 -18 5 0 15 -8 22 -17 12 -16 13 -14 10 15 -1 18 -12 41 -24 52 -26 25 -37 26 -27 3z"/>
<path d="M3127 4244 c-4 -4 -7 -17 -7 -28 1 -19 1 -20 11 -3 11 19 8 43 -4 31z"/>
<path d="M3153 4118 c3 -12 2 -29 -4 -39 -6 -12 -5 -20 1 -24 6 -4 15 7 21 24 6 17 15 31 20 31 18 0 -3 26 -22 27 -17 2 -20 -2 -16 -19z"/>
<path d="M3384 4025 c1 -46 16 -46 16 0 0 19 -4 35 -8 35 -5 0 -8 -16 -8 -35z"/>
<path d="M3230 4030 c0 -12 35 -31 44 -23 15 15 4 33 -19 33 -14 0 -25 -4 -25 -10z"/>
<path d="M3177 3996 c-11 -29 -8 -48 11 -62 14 -11 15 -15 3 -23 -7 -5 -10 -14 -6 -20 5 -9 10 -9 20 -1 10 8 15 7 19 -2 3 -7 5 4 3 25 -2 20 1 37 5 37 4 0 8 7 8 16 0 8 -5 12 -10 9 -6 -4 -19 4 -29 16 -16 20 -18 20 -24 5z"/>
<path d="M3098 3993 c-10 -2 -18 -8 -18 -13 0 -12 33 -5 38 8 2 7 2 11 0 11 -1 -1 -11 -3 -20 -6z"/>
<path d="M3327 3949 c-18 -10 -18 -12 3 -26 27 -19 50 -11 43 16 -6 23 -19 26 -46 10z"/>
<path d="M3260 3930 c0 -13 5 -18 14 -14 8 3 12 12 9 20 -8 21 -23 17 -23 -6z"/>
<path d="M3393 3894 c-7 -7 -13 -18 -13 -24 0 -15 20 -12 26 5 9 22 0 35 -13 19z"/>
<path d="M3378 3822 c-10 -2 -18 -10 -18 -18 0 -11 7 -13 28 -8 15 4 32 11 39 16 7 6 13 3 16 -9 4 -15 5 -14 6 4 1 18 -4 21 -26 20 -16 0 -36 -3 -45 -5z"/>
<path d="M3229 3793 c-7 -51 -6 -62 7 -67 10 -4 14 2 16 19 0 14 1 30 2 37 1 13 -23 24 -25 11z"/>
<path d="M3054 3704 c-1 -13 2 -24 7 -24 11 0 12 37 2 43 -5 3 -9 -6 -9 -19z"/>
<path d="M3190 3695 c1 -26 2 -28 11 -12 8 14 8 22 0 30 -8 8 -11 3 -11 -18z"/>
<path d="M3383 3680 c1 -11 5 -20 9 -20 3 0 6 9 5 20 -1 11 -5 20 -9 20 -3 0 -6 -9 -5 -20z"/>
<path d="M3215 3670 c-4 -7 -1 -16 6 -21 17 -10 26 8 11 23 -6 6 -12 6 -17 -2z"/>
<path d="M3290 3638 c0 -7 -14 -33 -30 -57 -34 -50 -39 -72 -11 -47 10 9 25 14 35 10 9 -3 16 -1 16 4 0 6 -8 13 -17 15 -16 4 -16 5 -1 6 12 1 16 10 16 30 -1 15 2 33 6 40 4 6 2 11 -3 11 -6 0 -11 -6 -11 -12z"/>
<path d="M3187 3575 c-5 -10 0 -15 14 -15 12 0 19 5 17 12 -6 18 -25 20 -31 3z"/>
<path d="M3298 3463 c-10 -3 -18 -11 -18 -18 0 -24 -22 -29 -38 -9 -14 18 -14 18 -8 1 3 -10 6 -22 6 -26 0 -5 11 -6 25 -3 14 2 25 11 25 19 0 8 4 12 9 9 5 -3 14 1 20 8 14 16 4 24 -21 19z"/>
<path d="M3351 3456 c-9 -10 -8 -15 4 -20 8 -3 15 -16 15 -30 0 -27 35 -43 44 -19 12 29 6 43 -16 40 -18 -1 -23 3 -22 21 1 25 -8 28 -25 8z"/>
<path d="M3506 3359 c-3 -17 -2 -38 3 -47 5 -9 6 -32 4 -49 -3 -21 -1 -33 6 -33 6 0 11 9 11 21 0 11 4 18 10 14 5 -3 5 7 -1 25 -6 16 -15 30 -20 30 -5 0 -9 7 -9 15 0 8 5 15 10 15 12 0 13 27 1 34 -5 3 -11 -8 -15 -25z"/>
<path d="M3262 3355 c-6 -14 -20 -25 -30 -25 -15 0 -18 -6 -14 -30 4 -27 32 -64 32 -44 1 5 7 -2 15 -16 l14 -25 1 33 c0 23 -4 31 -12 26 -6 -4 -3 5 8 19 10 15 24 27 30 27 13 0 28 30 19 38 -3 3 -12 -3 -21 -14 -13 -15 -15 -16 -10 -2 2 9 -1 21 -8 27 -10 8 -16 5 -24 -14z"/>
<path d="M3557 3328 c3 -29 6 -75 4 -101 -1 -42 1 -48 16 -45 14 3 17 12 15 45 -1 23 2 44 8 48 28 17 -3 105 -37 105 -10 0 -12 -12 -6 -52z"/>
<path d="M3077 3343 c-12 -11 -8 -19 12 -20 14 -1 18 3 14 13 -6 15 -16 18 -26 7z"/>
<path d="M3412 3341 c-15 -9 -13 -42 3 -48 6 -1 10 11 11 27 1 17 1 30 0 30 -1 0 -7 -4 -14 -9z"/>
<path d="M3300 3298 c0 -7 -3 -24 -7 -37 -5 -20 -3 -23 10 -18 9 3 17 1 20 -6 2 -7 9 -2 16 11 11 20 10 27 -5 43 -20 22 -34 25 -34 7z"/>
<path d="M3362 3273 c1 -49 8 -74 20 -67 7 5 9 0 6 -14 -4 -14 -2 -19 8 -15 9 3 12 18 10 44 -2 22 0 37 5 33 12 -7 11 3 -1 27 -17 30 -48 25 -48 -8z"/>
<path d="M3160 3190 c-12 -8 -11 -10 8 -10 12 0 22 5 22 10 0 13 -11 13 -30 0z"/>
<path d="M3070 3148 c0 -11 4 -17 9 -14 5 4 12 0 14 -6 3 -7 6 -1 6 13 1 16 -4 26 -14 26 -8 0 -15 -9 -15 -19z"/>
<path d="M2971 3101 c-22 -30 -19 -43 7 -33 15 5 16 4 2 -14 -8 -10 -21 -25 -28 -33 -24 -25 -4 -22 22 4 14 14 26 36 26 48 0 13 5 28 11 34 7 7 6 12 -5 16 -10 4 -23 -4 -35 -22z"/>
<path d="M3508 3123 c-10 -2 -18 -9 -18 -14 0 -15 43 -7 48 9 4 12 0 13 -30 5z"/>
<path d="M3091 3061 c-10 -6 -10 -10 -1 -16 13 -8 24 -1 19 14 -3 6 -10 7 -18 2z"/>
<path d="M3201 3043 c-1 -7 -8 -10 -16 -7 -9 4 -15 0 -15 -10 0 -18 8 -20 29 -7 7 5 11 15 8 22 -4 9 -6 10 -6 2z"/>
<path d="M2870 3001 c0 -5 7 -14 16 -22 13 -10 17 -10 24 1 5 8 6 18 4 22 -7 11 -44 10 -44 -1z"/>
<path d="M3077 2992 c-25 -27 -21 -35 8 -16 25 16 33 34 17 34 -5 0 -16 -8 -25 -18z"/>
<path d="M2840 2931 c-15 -28 -12 -39 5 -17 7 10 18 15 24 11 7 -3 8 0 5 9 -8 21 -21 20 -34 -3z"/>
<path d="M2660 2917 c-11 -22 -19 -27 -36 -23 -14 4 -24 1 -28 -9 -4 -11 1 -15 18 -15 14 0 26 -6 29 -12 3 -8 8 -6 13 7 4 11 12 23 17 26 5 4 7 17 5 30 l-4 24 -14 -28z"/>
<path d="M2740 2910 c0 -5 -7 -10 -15 -10 -8 0 -15 -4 -15 -10 0 -12 2 -12 34 0 28 10 35 30 11 30 -8 0 -15 -4 -15 -10z"/>
<path d="M3027 2884 c-4 -4 -7 -14 -7 -23 0 -11 3 -12 11 -4 6 6 10 16 7 23 -2 6 -7 8 -11 4z"/>
<path d="M2523 2873 c-13 -2 -23 -8 -23 -13 0 -5 -11 -20 -25 -34 -14 -14 -25 -30 -25 -35 0 -18 64 0 86 24 12 13 25 21 28 18 3 -4 6 6 6 20 0 27 -3 28 -47 20z"/>
<path d="M2800 2835 c-20 -24 -6 -28 15 -5 10 11 13 20 8 20 -6 0 -16 -7 -23 -15z"/>
<path d="M2423 2738 c-12 -15 -33 -76 -33 -94 0 -7 8 -10 20 -7 11 3 20 9 20 14 0 5 6 9 13 9 20 0 57 35 57 53 0 11 -8 15 -27 14 -18 -1 -27 3 -25 11 1 6 -2 12 -7 12 -5 0 -13 -6 -18 -12z m22 -28 c-3 -5 -2 -10 4 -10 6 0 8 -7 5 -15 -6 -14 -8 -13 -20 2 -18 24 -17 33 2 33 8 0 12 -4 9 -10z"/>
<path d="M2540 2655 c0 -8 7 -15 15 -15 8 0 15 7 15 15 0 8 -7 15 -15 15 -8 0 -15 -7 -15 -15z"/>
</g>
<g id="layer103" fill="#f21420" stroke="none">
<path d="M2475 5585 c-218 -25 -446 -80 -653 -156 -249 -92 -565 -272 -782 -445 -109 -87 -337 -315 -424 -424 -277 -346 -480 -781 -566 -1206 -68 -339 -68 -769 0 -1108 86 -425 289 -860 566 -1206 87 -109 315 -337 424 -424 350 -279 790 -485 1210 -565 215 -41 272 -46 550 -46 280 0 351 6 555 46 422 83 857 287 1205 565 109 87 337 315 424 424 327 410 540 919 601 1435 30 261 16 623 -35 879 -86 425 -289 860 -566 1206 -87 109 -315 337 -424 424 -350 279 -786 483 -1210 566 -257 50 -621 64 -875 35z m-485 -837 c0 -20 11 -23 26 -8 6 6 24 4 49 -4 67 -23 105 -29 105 -16 0 6 4 9 10 5 5 -3 18 3 30 15 11 11 27 20 35 20 21 0 19 -36 -2 -44 -35 -13 -73 -37 -73 -47 0 -5 -6 -9 -14 -9 -19 0 -106 39 -106 48 0 4 -15 9 -32 10 -18 2 -34 7 -36 12 -4 10 -57 4 -130 -17 -46 -13 -55 -20 -72 -56 -32 -66 -30 -69 48 -64 40 3 83 -1 107 -9 22 -7 57 -16 78 -19 28 -6 54 -23 97 -66 33 -32 60 -64 60 -70 0 -6 27 -38 60 -71 33 -34 60 -64 60 -69 0 -4 11 -20 25 -35 14 -15 25 -35 25 -44 0 -10 8 -20 19 -23 17 -4 51 -58 51 -81 0 -7 14 -17 30 -23 20 -7 30 -18 30 -32 0 -14 5 -19 15 -15 10 4 15 0 15 -11 0 -9 6 -22 13 -29 48 -51 56 -65 42 -76 -11 -9 -23 -5 -54 22 -23 18 -39 39 -36 45 2 7 -7 16 -21 19 -13 3 -23 11 -22 18 2 6 -12 25 -30 42 -17 17 -32 35 -32 40 0 5 -13 24 -29 42 -17 17 -37 42 -45 54 -9 13 -30 39 -46 58 -17 19 -72 82 -122 140 -114 132 -165 164 -253 158 -59 -4 -101 -20 -210 -83 -27 -15 -56 -37 -63 -47 -7 -10 -25 -24 -40 -32 -15 -8 -48 -33 -72 -56 -82 -77 -140 -119 -155 -113 -11 3 -15 -2 -15 -19 0 -14 -24 -53 -61 -98 -67 -82 -149 -202 -171 -250 -7 -16 -15 -30 -19 -30 -3 0 -4 -13 -3 -29 2 -34 -24 -77 -37 -64 -17 17 -13 82 6 103 10 11 15 20 12 20 -10 0 15 64 32 82 25 27 34 40 61 91 13 26 30 47 38 47 7 0 16 8 19 18 16 43 85 132 103 132 10 0 34 21 55 50 20 28 46 55 56 61 10 5 19 16 19 24 0 7 8 16 18 19 9 4 35 22 56 40 21 19 60 44 85 56 25 12 53 26 61 31 8 5 25 14 37 20 13 7 24 25 28 48 4 20 10 40 13 46 4 5 7 15 8 20 8 45 25 65 54 65 24 0 30 4 28 17 -2 13 5 18 27 19 17 1 40 6 52 11 12 4 40 8 62 8 32 0 41 -4 41 -17z m390 -6 c41 -37 52 -43 78 -44 15 0 47 7 72 16 52 18 88 20 124 6 14 -5 46 -11 71 -13 25 -2 48 -7 51 -10 3 -3 12 -3 19 -1 7 3 16 1 20 -5 3 -6 17 -8 31 -5 13 3 24 2 24 -3 0 -5 14 -17 30 -27 17 -9 39 -26 49 -37 15 -17 22 -18 50 -8 56 20 211 -11 211 -42 0 -5 4 -8 9 -4 5 3 21 -6 35 -20 20 -20 35 -25 73 -25 38 0 60 -8 106 -37 31 -21 55 -43 53 -50 -3 -6 0 -14 7 -16 9 -3 9 -9 0 -26 -7 -11 -13 -25 -13 -31 0 -5 6 -10 13 -10 14 0 15 -9 22 -133 2 -49 8 -94 14 -100 5 -7 14 -46 20 -87 16 -116 29 -188 35 -198 3 -5 7 -37 10 -73 7 -97 17 -169 30 -219 6 -25 11 -64 11 -87 0 -37 3 -43 34 -58 22 -10 73 -17 150 -21 64 -3 132 -9 151 -14 34 -8 172 -32 187 -32 5 0 13 -4 20 -10 7 -5 26 -7 43 -3 17 4 36 2 44 -4 7 -6 24 -7 41 -2 18 4 38 3 50 -3 28 -16 65 -49 65 -60 0 -5 10 -18 23 -29 16 -15 19 -21 8 -25 -7 -2 -9 -7 -5 -11 5 -3 17 -23 26 -43 16 -35 16 -37 0 -32 -14 5 -14 4 1 -6 13 -8 17 -19 13 -35 -4 -14 0 -29 9 -39 18 -18 20 -47 3 -44 -12 3 -13 -7 -7 -108 1 -12 -7 -31 -17 -41 -11 -11 -32 -37 -49 -58 -16 -21 -40 -50 -52 -66 -13 -15 -23 -30 -23 -33 0 -3 -24 -30 -52 -59 -29 -30 -90 -93 -136 -141 -46 -47 -87 -86 -93 -86 -5 0 -15 -16 -23 -35 -8 -19 -21 -35 -29 -35 -8 0 -18 -7 -21 -16 -3 -9 -13 -14 -21 -11 -10 4 -12 1 -8 -10 4 -11 2 -14 -8 -11 -8 3 -23 -5 -34 -18 -22 -25 -124 -82 -169 -95 -31 -9 -66 4 -66 24 0 7 4 6 10 -3 8 -13 10 -12 10 4 0 12 5 16 15 12 8 -3 15 0 15 5 0 7 9 9 21 6 12 -3 22 0 26 9 3 8 8 12 12 9 4 -2 19 7 34 21 14 13 31 24 37 24 5 0 10 7 10 16 0 8 4 13 10 9 5 -3 17 6 26 20 9 14 21 25 27 25 12 0 34 27 47 58 5 12 18 22 30 22 13 0 22 9 26 25 3 14 10 25 15 25 5 0 9 8 9 18 0 13 3 11 13 -7 6 -14 19 -27 27 -29 11 -4 10 1 -4 23 l-18 27 46 42 c25 22 46 46 46 52 0 14 29 28 51 25 9 -1 19 5 22 14 4 8 19 16 34 16 21 1 23 3 8 6 -30 7 -41 21 -27 35 7 7 12 23 12 36 0 15 7 26 20 29 11 3 20 10 20 16 0 6 3 8 6 5 3 -3 0 -15 -8 -27 -10 -17 -10 -23 1 -33 9 -9 12 -9 7 -1 -3 6 0 18 8 25 9 9 11 20 5 35 -5 14 -5 23 1 23 6 0 10 7 10 15 0 15 36 39 48 31 9 -5 8 106 -1 121 -4 7 -33 10 -79 8 -56 -2 -78 1 -102 16 -17 10 -46 19 -63 19 -18 0 -33 4 -33 9 0 6 -20 13 -45 17 -26 3 -53 14 -62 23 -10 10 -18 12 -20 5 -4 -11 -64 -10 -110 1 -26 6 -31 30 -8 39 8 3 15 1 15 -4 0 -5 13 -7 29 -4 16 3 55 -2 87 -11 33 -10 67 -18 76 -17 9 0 19 -6 22 -14 4 -10 17 -15 38 -13 18 1 40 -1 48 -4 43 -18 144 -33 177 -28 37 6 38 7 35 46 -6 81 -37 168 -69 197 -23 20 -63 30 -138 34 -54 3 -88 9 -165 29 -14 4 -79 10 -145 15 -66 4 -138 10 -160 13 -66 10 -77 2 -74 -52 1 -26 0 -51 -3 -57 -3 -5 -6 -26 -6 -46 -1 -35 0 -37 51 -52 46 -14 107 -25 145 -26 14 0 17 -40 2 -40 -5 0 -14 8 -19 18 -6 9 -11 12 -11 5 0 -15 -72 -11 -113 6 -62 25 -70 19 -232 -144 -84 -85 -160 -155 -168 -155 -9 0 -17 -4 -19 -8 -8 -20 -140 -102 -164 -102 -8 0 -14 -5 -14 -10 0 -6 -11 -15 -25 -20 -14 -5 -49 -25 -78 -43 -29 -19 -65 -37 -81 -41 -35 -9 -91 -53 -117 -92 -16 -24 -19 -26 -25 -11 -6 17 -8 17 -25 1 -11 -9 -19 -26 -19 -37 0 -12 -5 -17 -14 -14 -9 4 -16 -3 -20 -17 -3 -14 -20 -31 -41 -40 -23 -11 -35 -24 -35 -37 0 -12 4 -17 11 -13 6 3 14 2 18 -4 3 -6 19 -13 34 -16 40 -7 101 -30 108 -40 4 -5 14 -6 23 -3 8 3 37 -4 63 -15 26 -12 56 -21 66 -19 10 1 30 -5 44 -14 13 -9 27 -14 30 -11 4 3 12 1 18 -4 7 -6 27 -12 44 -13 17 -1 31 -6 31 -11 0 -4 11 -5 24 -2 16 4 30 0 40 -9 8 -8 32 -15 55 -15 23 0 41 -4 41 -9 0 -5 3 -18 7 -28 6 -17 6 -17 -15 0 -11 11 -25 16 -30 13 -5 -3 -43 3 -83 13 -69 18 -87 21 -131 22 -10 0 -18 4 -18 10 0 5 -13 9 -30 9 -16 0 -30 4 -30 8 0 8 -67 29 -112 36 -9 1 -22 7 -30 13 -7 6 -20 11 -28 12 -8 1 -26 2 -40 4 -14 1 -29 5 -35 8 -5 4 -22 9 -37 13 -15 3 -37 16 -48 28 -11 12 -20 18 -20 14 0 -4 -9 -1 -21 7 -11 8 -30 12 -42 9 -19 -5 -20 -3 -9 11 8 9 11 25 7 37 -4 12 -2 20 4 20 17 0 80 43 86 59 3 9 0 11 -10 8 -8 -4 -17 -2 -21 4 -4 6 -14 5 -29 -5 -17 -11 -25 -12 -35 -3 -10 9 -11 9 -6 -3 4 -8 -2 -4 -13 9 -12 13 -21 29 -21 37 0 8 -7 14 -15 14 -9 0 -33 11 -54 24 -21 14 -57 30 -80 36 -66 17 -183 -4 -195 -36 -8 -21 -33 -17 -39 8 -5 19 -8 20 -23 7 -16 -12 -17 -12 -11 4 9 24 -19 22 -33 -3 -14 -25 -40 -15 -40 16 0 13 5 24 10 24 6 0 10 -4 10 -10 0 -5 7 -10 15 -10 9 0 15 10 15 26 0 14 -4 23 -9 20 -5 -4 -11 -2 -13 4 -1 5 -16 -1 -33 -14 -27 -21 -28 -25 -15 -41 14 -17 13 -17 -6 -7 -16 9 -20 18 -16 39 5 26 4 27 -12 14 -14 -12 -19 -12 -25 -2 -5 7 -14 12 -22 11 -28 -4 -39 0 -39 16 0 10 6 14 15 10 8 -3 15 -2 15 2 0 9 55 33 130 57 30 10 60 21 65 25 6 4 37 15 70 25 98 28 224 95 251 134 8 11 21 21 29 21 7 0 23 11 36 25 13 13 30 25 36 25 7 0 48 23 92 51 44 28 82 51 85 50 3 0 16 9 29 22 13 12 42 33 65 46 22 13 52 34 66 45 15 12 44 35 65 51 51 40 83 125 46 125 -8 0 -15 5 -15 10 0 6 -7 10 -15 10 -8 0 -15 6 -15 13 0 8 -4 7 -10 -3 -8 -13 -10 -12 -10 3 0 10 -8 17 -19 17 -11 0 -23 5 -26 10 -3 6 -1 10 4 10 6 0 11 7 11 15 0 21 26 19 50 -5 11 -11 25 -20 30 -20 6 0 10 -6 10 -12 0 -9 4 -8 10 2 6 10 10 11 10 3 0 -7 7 -13 15 -13 19 0 18 76 -1 104 -12 17 -11 23 4 40 16 20 16 20 0 7 -16 -12 -18 -10 -18 26 0 45 -17 74 -64 102 -27 17 -32 26 -28 47 3 18 8 22 15 15 6 -6 24 -11 39 -11 23 0 28 4 28 25 0 14 -5 25 -11 25 -7 0 -9 17 -4 51 5 35 4 49 -3 45 -14 -8 -25 29 -18 60 4 13 2 24 -3 24 -6 0 -8 7 -5 15 4 8 2 15 -4 15 -13 0 -21 35 -11 51 4 7 3 19 -2 26 -7 8 -7 19 1 34 9 17 9 23 0 29 -7 5 -10 15 -7 25 4 9 11 13 17 10 25 -15 7 12 -19 30 -24 16 -27 21 -15 30 22 15 27 63 9 81 -19 20 -19 35 0 28 17 -7 20 7 4 23 -6 6 -12 45 -14 87 -1 42 -5 79 -8 83 -4 3 -14 0 -23 -8 -14 -12 -16 -11 -12 6 2 11 9 19 16 18 7 -2 10 10 7 35 -5 50 -6 51 -14 22 -6 -22 -8 -19 -15 22 -7 47 -7 47 -54 54 -26 5 -49 9 -52 9 -71 16 -115 15 -163 -1 -28 -10 -60 -24 -69 -32 -24 -20 -61 -8 -102 33 -25 25 -33 40 -29 56 4 15 3 20 -6 15 -6 -4 -9 -12 -6 -17 4 -5 -7 -9 -23 -9 -21 0 -31 6 -35 20 -3 10 0 21 7 24 19 9 76 -4 96 -22z m1207 -397 c15 -10 24 -12 28 -4 5 7 12 6 23 -4 10 -8 27 -18 40 -21 12 -4 22 -11 22 -16 0 -4 8 -10 18 -14 36 -12 77 -43 87 -64 5 -12 13 -22 17 -22 4 0 16 -21 27 -46 14 -32 26 -45 38 -43 22 3 69 -16 78 -30 3 -6 15 -11 26 -11 11 0 18 -4 15 -9 -3 -5 5 -24 18 -44 13 -19 27 -46 31 -58 4 -13 14 -31 21 -40 12 -14 12 -22 0 -57 -15 -42 -13 -52 11 -52 17 0 43 -24 43 -39 0 -6 4 -11 8 -11 5 0 16 -18 25 -40 12 -31 13 -48 5 -76 -9 -35 -8 -39 28 -70 21 -19 33 -34 28 -34 -5 0 -1 -7 9 -15 18 -13 33 -55 42 -118 3 -16 7 -33 10 -38 4 -5 2 -9 -3 -9 -6 0 -8 -10 -4 -22 5 -19 3 -21 -9 -11 -9 7 -28 11 -45 10 l-29 -2 -5 70 c-6 81 -24 119 -75 159 -31 25 -35 33 -29 55 3 14 7 44 8 66 1 33 -4 45 -33 73 -18 17 -39 32 -46 32 -22 0 -40 29 -27 42 7 7 12 37 12 68 0 47 -5 62 -34 104 -46 64 -63 75 -114 76 -62 0 -79 12 -86 63 -5 34 -16 53 -49 84 -47 44 -120 88 -167 98 -29 6 -37 15 -23 28 11 12 37 8 60 -8z m-1669 -134 c47 -24 152 -125 152 -146 0 -8 6 -15 13 -15 7 0 23 -18 36 -40 12 -22 28 -40 35 -40 8 0 24 -16 37 -35 13 -19 28 -35 33 -35 10 0 56 -48 56 -59 0 -4 20 -22 45 -39 26 -18 43 -37 40 -42 -3 -6 1 -10 9 -10 28 0 64 -22 69 -42 4 -13 10 -17 18 -12 8 5 10 3 4 -5 -11 -18 -53 -5 -92 30 -19 16 -39 29 -45 29 -6 0 -20 9 -32 20 -83 81 -225 230 -297 311 -32 37 -76 74 -103 87 l-46 23 -73 -32 c-81 -37 -164 -96 -228 -164 -23 -24 -52 -48 -63 -51 -63 -20 -256 -218 -256 -263 0 -9 -14 -49 -30 -89 -29 -68 -30 -75 -20 -132 12 -64 1 -108 -28 -118 -11 -3 -12 0 -3 17 8 14 8 21 1 21 -5 0 -10 19 -10 43 0 23 -7 52 -15 65 -15 20 -14 23 4 38 10 9 17 23 14 30 -7 19 44 145 68 167 10 10 19 23 19 30 0 7 31 46 69 87 87 94 76 84 146 130 33 21 93 70 134 109 40 39 80 71 89 71 8 0 31 10 50 23 49 30 112 56 140 56 12 1 39 -8 60 -18z m722 -329 c0 3 14 -7 31 -23 17 -16 39 -29 49 -29 11 0 27 -14 37 -31 13 -21 23 -29 37 -25 20 5 36 -7 54 -41 8 -14 9 -24 2 -28 -5 -3 -10 -1 -10 4 0 6 -11 11 -24 11 -14 0 -28 5 -31 10 -7 11 -105 77 -147 99 -15 8 -25 18 -22 23 3 4 -1 8 -9 8 -21 0 -29 28 -14 45 10 11 15 10 29 -8 10 -12 18 -19 18 -15z m-649 12 c43 -22 109 -84 109 -101 0 -9 6 -13 15 -9 14 5 65 -39 65 -56 0 -5 4 -8 10 -8 14 0 50 -32 50 -45 0 -5 18 -28 40 -49 22 -22 40 -43 40 -48 0 -15 89 -98 104 -98 8 0 18 -4 21 -10 4 -6 -9 -10 -32 -10 -38 0 -101 31 -116 56 -5 8 -13 12 -19 8 -6 -4 -8 1 -3 15 5 17 2 21 -18 21 -27 0 -71 56 -83 106 -8 31 -38 64 -58 64 -8 0 -17 11 -20 25 -4 14 -12 25 -20 25 -20 0 -61 40 -58 56 2 9 -6 14 -21 14 -13 0 -32 7 -43 15 -33 25 -72 18 -111 -20 -20 -19 -37 -35 -38 -35 -1 0 -12 9 -24 19 -26 23 -22 35 23 62 39 24 143 26 187 3z m-965 -229 c-4 -16 -13 -25 -26 -25 -26 0 -25 15 1 41 25 25 34 19 25 -16z m1500 -29 c36 -36 43 -56 19 -56 -19 0 -85 58 -85 76 0 24 31 15 66 -20z m79 -62 c10 4 19 -3 25 -18 7 -18 14 -22 34 -19 19 4 33 -3 57 -26 17 -17 34 -29 39 -26 5 3 11 1 15 -5 3 -5 1 -10 -5 -10 -6 0 -8 -4 -5 -10 3 -5 -2 -10 -13 -10 -24 0 -72 37 -72 56 0 8 -4 14 -10 14 -5 0 -10 -5 -10 -12 0 -7 -7 -5 -17 5 -10 8 -25 17 -33 19 -29 6 -49 33 -43 58 l6 24 9 -23 c5 -15 13 -21 23 -17z m-1147 -63 c-73 -64 -68 -147 13 -221 52 -48 58 -60 34 -60 -36 0 -130 90 -141 135 -1 6 -5 18 -9 28 -4 10 -3 17 4 17 8 0 9 5 2 17 -7 13 -2 31 17 69 25 49 30 53 67 56 22 2 41 0 43 -4 2 -4 -12 -21 -30 -37z m687 -35 c9 -9 26 -18 38 -21 12 -4 33 -22 46 -40 13 -19 27 -35 32 -35 5 0 9 -11 9 -25 0 -19 10 -29 40 -45 22 -11 40 -25 40 -30 0 -6 9 -10 20 -10 11 0 20 -4 20 -10 0 -5 7 -10 15 -10 8 0 15 -4 15 -9 0 -5 9 -13 20 -16 11 -3 20 -11 20 -17 0 -14 -48 -1 -79 20 -13 9 -31 22 -40 27 -9 6 -32 22 -52 38 -20 15 -41 27 -46 27 -5 0 -31 14 -57 30 -37 24 -47 35 -43 50 4 15 0 20 -14 20 -10 0 -19 3 -19 8 0 13 -59 34 -79 27 -22 -7 -36 9 -27 32 5 13 17 15 66 10 35 -3 66 -12 75 -21z m661 -43 c-11 -12 -27 13 -20 32 7 17 8 17 17 -3 6 -12 7 -25 3 -29z m-871 27 c-3 -5 -2 -10 4 -10 5 0 11 5 13 10 2 7 11 5 23 -4 20 -14 20 -15 -5 -24 -17 -6 -29 -6 -38 1 -10 8 -12 7 -10 -3 2 -7 -11 -17 -30 -22 -18 -5 -35 -15 -39 -23 -7 -19 -33 -19 -33 -1 0 8 -6 17 -12 20 -7 3 -2 4 12 3 24 -2 46 10 79 45 17 18 46 24 36 8z m-841 -26 c11 -28 6 -39 -9 -20 -8 11 -15 23 -15 28 0 14 18 9 24 -8z m126 -134 c0 -5 -7 -10 -15 -10 -8 0 -15 5 -15 10 0 6 7 10 15 10 8 0 15 -4 15 -10z m609 -179 c12 -37 11 -44 -5 -33 -6 4 -14 25 -18 47 -9 47 5 38 23 -14z m1768 -144 c4 -8 26 -17 48 -20 22 -4 41 -11 43 -16 2 -6 9 -8 17 -5 7 3 23 1 34 -5 11 -6 62 -14 113 -17 85 -5 185 -21 263 -42 20 -6 31 -16 33 -30 2 -12 8 -22 13 -22 5 0 9 -7 9 -16 0 -8 -4 -13 -8 -10 -5 3 -14 -11 -21 -30 -9 -25 -17 -34 -28 -30 -8 3 -24 1 -35 -5 -30 -16 -32 -6 -8 41 12 23 19 48 16 55 -6 18 -64 33 -148 38 -36 3 -71 8 -77 11 -6 4 -37 9 -68 12 -32 3 -88 17 -126 31 -37 15 -70 24 -73 20 -8 -8 -44 25 -44 40 0 17 37 17 47 0z m-37 -166 c3 -5 46 -18 95 -30 50 -13 97 -28 105 -36 8 -7 30 -16 47 -20 36 -7 83 -56 83 -86 0 -13 4 -18 11 -13 9 5 10 -7 5 -46 -7 -49 -6 -52 12 -48 19 5 18 4 -2 -27 -11 -19 -29 -36 -39 -38 -10 -3 -21 -15 -24 -27 -4 -14 -8 -18 -13 -10 -5 8 -16 4 -35 -14 -15 -14 -32 -26 -38 -26 -5 0 -7 -7 -3 -15 3 -8 2 -14 -2 -14 -27 4 -52 -3 -52 -16 0 -8 -10 -19 -22 -26 -18 -10 -20 -9 -14 7 5 15 2 15 -13 -3 -11 -13 -24 -23 -30 -23 -6 0 -19 -5 -30 -11 -12 -8 -23 -9 -36 -2 -17 10 -16 12 11 28 16 10 41 26 56 36 15 11 31 19 37 19 12 0 121 105 143 139 25 36 22 68 -8 126 -32 62 -59 91 -87 98 -97 24 -149 38 -164 46 -10 5 -33 15 -50 21 -48 18 -42 34 9 26 23 -4 45 -11 48 -15z m-1880 -56 c0 -9 -6 -12 -15 -9 -8 4 -15 10 -15 15 0 5 7 9 15 9 8 0 15 -7 15 -15z m70 -59 c-14 -14 -24 0 -16 21 6 15 8 15 16 3 6 -9 5 -19 0 -24z m65 -14 c14 -10 17 -32 5 -32 -5 0 -10 6 -10 14 0 8 -6 17 -12 19 -7 3 -8 6 -3 6 6 0 15 -3 20 -7z m488 -136 c3 3 8 0 12 -6 5 -8 0 -10 -13 -8 -13 2 -38 -11 -64 -33 -24 -20 -53 -41 -65 -48 -26 -13 -31 -41 -8 -41 13 0 13 -4 -2 -26 l-17 -27 -9 34 c-5 19 -13 40 -19 46 -8 10 -1 24 23 52 34 39 48 48 90 56 12 2 24 7 27 9 2 3 12 1 22 -4 10 -5 20 -7 23 -4z m168 -137 c17 -34 18 -43 7 -79 -7 -22 -18 -40 -25 -40 -6 0 -13 -5 -15 -10 -2 -6 -21 -13 -43 -16 l-40 -6 25 21 c14 11 21 21 17 21 -4 0 -2 10 5 23 11 21 14 109 3 126 -2 5 7 6 21 3 16 -3 32 -18 45 -43z m-491 -47 c0 -4 -12 -15 -27 -24 -16 -9 -45 -34 -67 -56 -32 -33 -42 -56 -65 -138 -27 -102 -34 -223 -15 -289 15 -55 -2 -99 -30 -76 -9 7 -15 16 -14 19 4 15 -15 98 -24 109 -10 12 -13 113 -6 190 2 23 14 56 26 73 13 18 21 38 18 48 -8 25 9 44 94 101 69 47 110 63 110 43z m255 -65 c-20 -11 -29 -3 -21 19 5 13 9 14 22 3 14 -11 14 -13 -1 -22z m1255 -26 c0 -6 -8 -16 -19 -23 -31 -22 -71 -89 -71 -121 0 -17 7 -38 16 -48 19 -21 12 -49 -11 -49 -21 0 -43 22 -37 38 2 6 -3 12 -12 12 -9 0 -16 7 -16 15 0 8 5 15 12 15 6 0 2 9 -10 20 l-21 20 25 45 c14 25 31 45 38 45 6 0 27 9 46 19 39 22 60 26 60 12z m160 -132 c0 -5 -4 -9 -8 -9 -15 0 -32 24 -32 45 1 19 1 19 20 -4 11 -13 20 -27 20 -32z m-1283 5 c30 -8 69 -126 59 -178 -4 -20 -8 -36 -9 -36 -1 0 -25 -3 -54 -6 l-52 -6 -31 48 c-33 52 -37 79 -16 107 8 10 12 26 9 36 -7 27 48 47 94 35z m1307 -29 c-7 -17 -20 -20 -28 -6 -7 10 3 21 20 21 8 0 11 -6 8 -15z m-8 -77 c-2 -18 -4 -36 -5 -39 -3 -15 -52 -25 -119 -24 -63 1 -75 5 -88 23 -8 12 -21 19 -27 16 -7 -4 -7 -1 1 7 11 12 15 11 26 -4 21 -28 97 -21 134 14 16 15 40 29 53 32 13 2 25 5 26 6 2 0 1 -14 -1 -31z m77 -10 c2 -7 0 -21 -5 -31 -5 -9 -5 -17 -1 -16 28 5 53 -3 53 -16 0 -8 -4 -15 -10 -15 -5 0 -10 5 -10 10 0 6 -8 10 -17 10 -32 0 -46 16 -39 44 7 28 21 34 29 14z m-1103 -29 c0 -5 -4 -9 -9 -9 -5 0 -11 -8 -13 -17 -3 -11 -6 -6 -9 13 -4 26 -2 30 13 26 10 -2 18 -8 18 -13z m1143 -77 c-1 -5 5 -9 15 -8 14 1 18 -9 20 -49 2 -27 7 -54 13 -59 39 -41 -52 -441 -116 -510 -12 -13 -27 -36 -34 -53 -6 -16 -40 -59 -74 -94 -83 -87 -100 -100 -116 -90 -11 7 -7 17 19 49 17 22 40 42 50 45 9 2 20 17 24 32 4 15 14 34 22 42 8 8 12 23 9 34 -7 20 19 78 42 95 8 5 13 19 11 29 -2 13 5 23 20 30 21 9 23 15 19 53 -3 29 -1 45 8 48 6 3 12 19 13 36 0 17 5 34 10 37 5 3 12 37 15 76 3 38 10 71 16 73 6 2 11 8 11 13 0 6 -4 7 -10 4 -14 -9 -23 40 -11 63 14 26 14 35 0 26 -8 -5 -8 -1 0 13 7 15 7 23 -2 32 -15 15 -16 34 -2 43 13 10 31 4 28 -10z m-1178 -1 c3 -6 -1 -13 -8 -18 -15 -8 -49 -68 -53 -91 -4 -23 -14 -27 -15 -6 -2 29 7 94 13 98 9 8 44 25 50 26 4 0 9 -4 13 -9z m585 -30 c0 -4 11 -24 24 -44 21 -30 22 -38 10 -48 -21 -17 -17 -31 7 -24 19 6 20 5 8 -17 -7 -12 -12 -38 -10 -56 5 -65 -47 -83 -98 -34 -20 20 -31 44 -40 90 -13 66 -9 95 17 125 15 17 82 25 82 8z m-245 -161 c0 -49 -20 -48 -22 1 -1 27 2 39 10 36 7 -2 12 -19 12 -37z m-399 21 c-4 -5 0 -11 6 -14 7 -2 10 -8 5 -12 -10 -12 -31 11 -23 24 4 6 9 11 12 11 3 0 3 -4 0 -9z m-700 -66 c1 -17 4 -51 8 -78 5 -33 4 -47 -4 -47 -7 0 -14 9 -17 20 -3 11 -9 20 -14 20 -5 0 -9 8 -9 17 0 9 -5 32 -12 50 -10 29 -10 36 2 44 26 16 45 5 46 -26z m1104 -19 c0 -14 -29 -31 -38 -22 -2 3 -2 12 1 21 8 19 37 20 37 1z m-320 -98 c0 -26 -9 -19 -15 11 -2 12 0 19 6 16 5 -4 9 -16 9 -27z m290 -14 c0 -3 -8 -16 -18 -29 -13 -16 -23 -21 -32 -15 -12 7 -11 12 4 29 18 20 46 29 46 15z m-1025 -49 c17 -14 17 -17 4 -30 -13 -13 -18 -13 -34 -2 -11 9 -16 20 -12 31 8 20 16 20 42 1z m1568 -431 c-3 -9 -1 -19 5 -23 6 -3 8 -11 4 -16 -10 -15 -49 -35 -67 -35 -8 0 -24 -9 -35 -20 -25 -25 -52 -27 -43 -3 5 12 3 14 -8 9 -8 -4 -5 0 5 8 11 9 26 16 33 16 15 0 19 3 73 49 41 36 41 36 33 15z m-159 -116 c-9 -14 -23 2 -17 18 4 12 8 13 14 3 4 -7 5 -17 3 -21z m-44 -8 c-6 -11 -16 -20 -23 -21 -7 0 -20 -2 -30 -4 -9 -2 -15 1 -11 6 3 5 10 7 15 4 5 -4 9 -2 9 3 0 7 31 27 48 31 1 1 -2 -8 -8 -19z"/>
</g>
<g id="layer104" fill="#617049" stroke="none">
<path d="M2475 5585 c-218 -25 -446 -80 -653 -156 -249 -92 -565 -272 -782 -445 -109 -87 -337 -315 -424 -424 -277 -346 -480 -781 -566 -1206 -68 -339 -68 -769 0 -1108 86 -425 289 -860 566 -1206 87 -109 315 -337 424 -424 350 -279 790 -485 1210 -565 215 -41 272 -46 550 -46 280 0 351 6 555 46 422 83 857 287 1205 565 109 87 337 315 424 424 327 410 540 919 601 1435 30 261 16 623 -35 879 -86 425 -289 860 -566 1206 -87 109 -315 337 -424 424 -350 279 -786 483 -1210 566 -257 50 -621 64 -875 35z m-485 -837 c0 -20 11 -23 26 -8 6 6 24 4 49 -4 67 -23 105 -29 105 -16 0 6 4 9 10 5 5 -3 18 3 30 15 11 11 27 20 35 20 21 0 19 -36 -2 -44 -35 -13 -73 -37 -73 -47 0 -5 -6 -9 -14 -9 -19 0 -106 39 -106 48 0 4 -15 9 -32 10 -18 2 -34 7 -36 12 -4 10 -57 4 -130 -17 -46 -13 -55 -20 -72 -56 -32 -66 -30 -69 48 -64 40 3 83 -1 107 -9 22 -7 57 -16 78 -19 28 -6 54 -23 97 -66 33 -32 60 -64 60 -70 0 -6 27 -38 60 -71 33 -34 60 -64 60 -69 0 -4 11 -20 25 -35 14 -15 25 -35 25 -44 0 -10 8 -20 19 -23 17 -4 51 -58 51 -81 0 -7 14 -17 30 -23 20 -7 30 -18 30 -32 0 -14 5 -19 15 -15 10 4 15 0 15 -11 0 -9 6 -22 13 -29 48 -51 56 -65 42 -76 -11 -9 -23 -5 -54 22 -23 18 -39 39 -36 45 2 7 -7 16 -21 19 -13 3 -23 11 -22 18 2 6 -12 25 -30 42 -17 17 -32 35 -32 40 0 5 -13 24 -29 42 -17 17 -37 42 -45 54 -9 13 -30 39 -46 58 -17 19 -72 82 -122 140 -114 132 -165 164 -253 158 -59 -4 -101 -20 -210 -83 -27 -15 -56 -37 -63 -47 -7 -10 -25 -24 -40 -32 -15 -8 -48 -33 -72 -56 -82 -77 -140 -119 -155 -113 -11 3 -15 -2 -15 -19 0 -14 -24 -53 -61 -98 -67 -82 -149 -202 -171 -250 -7 -16 -15 -30 -19 -30 -3 0 -4 -13 -3 -29 2 -34 -24 -77 -37 -64 -17 17 -13 82 6 103 10 11 15 20 12 20 -10 0 15 64 32 82 25 27 34 40 61 91 13 26 30 47 38 47 7 0 16 8 19 18 16 43 85 132 103 132 10 0 34 21 55 50 20 28 46 55 56 61 10 5 19 16 19 24 0 7 8 16 18 19 9 4 35 22 56 40 21 19 60 44 85 56 25 12 53 26 61 31 8 5 25 14 37 20 13 7 24 25 28 48 4 20 10 40 13 46 4 5 7 15 8 20 8 45 25 65 54 65 24 0 30 4 28 17 -2 13 5 18 27 19 17 1 40 6 52 11 12 4 40 8 62 8 32 0 41 -4 41 -17z m390 -6 c41 -37 52 -43 78 -44 15 0 47 7 72 16 52 18 88 20 124 6 14 -5 46 -11 71 -13 25 -2 48 -7 51 -10 3 -3 12 -3 19 -1 7 3 16 1 20 -5 3 -6 17 -8 31 -5 13 3 24 2 24 -3 0 -5 14 -17 30 -27 17 -9 39 -26 49 -37 15 -17 22 -18 50 -8 56 20 211 -11 211 -42 0 -5 4 -8 9 -4 5 3 21 -6 35 -20 20 -20 35 -25 73 -25 38 0 60 -8 106 -37 31 -21 55 -43 53 -50 -3 -6 0 -14 7 -16 9 -3 9 -9 0 -26 -7 -11 -13 -25 -13 -31 0 -5 6 -10 13 -10 14 0 15 -9 22 -133 2 -49 8 -94 14 -100 5 -7 14 -46 20 -87 16 -116 29 -188 35 -198 3 -5 7 -37 10 -73 7 -97 17 -169 30 -219 6 -25 11 -64 11 -87 0 -37 3 -43 34 -58 22 -10 73 -17 150 -21 64 -3 132 -9 151 -14 34 -8 172 -32 187 -32 5 0 13 -4 20 -10 7 -5 26 -7 43 -3 17 4 36 2 44 -4 7 -6 24 -7 41 -2 18 4 38 3 50 -3 28 -16 65 -49 65 -60 0 -5 10 -18 23 -29 16 -15 19 -21 8 -25 -7 -2 -9 -7 -5 -11 5 -3 17 -23 26 -43 16 -35 16 -37 0 -32 -14 5 -14 4 1 -6 13 -8 17 -19 13 -35 -4 -14 0 -29 9 -39 18 -18 20 -47 3 -44 -12 3 -13 -7 -7 -108 1 -12 -7 -31 -17 -41 -11 -11 -32 -37 -49 -58 -16 -21 -40 -50 -52 -66 -13 -15 -23 -30 -23 -33 0 -3 -24 -30 -52 -59 -29 -30 -90 -93 -136 -141 -46 -47 -87 -86 -93 -86 -5 0 -15 -16 -23 -35 -8 -19 -21 -35 -29 -35 -8 0 -18 -7 -21 -16 -3 -9 -13 -14 -21 -11 -10 4 -12 1 -8 -10 4 -11 2 -14 -8 -11 -8 3 -23 -5 -34 -18 -22 -25 -124 -82 -169 -95 -31 -9 -66 4 -66 24 0 7 4 6 10 -3 8 -13 10 -12 10 4 0 12 5 16 15 12 8 -3 15 0 15 5 0 7 9 9 21 6 12 -3 22 0 26 9 3 8 8 12 12 9 4 -2 19 7 34 21 14 13 31 24 37 24 5 0 10 7 10 16 0 8 4 13 10 9 5 -3 17 6 26 20 9 14 21 25 27 25 12 0 34 27 47 58 5 12 18 22 30 22 13 0 22 9 26 25 3 14 10 25 15 25 5 0 9 8 9 18 0 13 3 11 13 -7 6 -14 19 -27 27 -29 11 -4 10 1 -4 23 l-18 27 46 42 c25 22 46 46 46 52 0 14 29 28 51 25 9 -1 19 5 22 14 4 8 19 16 34 16 21 1 23 3 8 6 -30 7 -41 21 -27 35 7 7 12 23 12 36 0 15 7 26 20 29 11 3 20 10 20 16 0 6 3 8 6 5 3 -3 0 -15 -8 -27 -10 -17 -10 -23 1 -33 9 -9 12 -9 7 -1 -3 6 0 18 8 25 9 9 11 20 5 35 -5 14 -5 23 1 23 6 0 10 7 10 15 0 15 36 39 48 31 9 -5 8 106 -1 121 -4 7 -33 10 -79 8 -56 -2 -78 1 -102 16 -17 10 -46 19 -63 19 -18 0 -33 4 -33 9 0 6 -20 13 -45 17 -26 3 -53 14 -62 23 -10 10 -18 12 -20 5 -4 -11 -64 -10 -110 1 -26 6 -31 30 -8 39 8 3 15 1 15 -4 0 -5 13 -7 29 -4 16 3 55 -2 87 -11 33 -10 67 -18 76 -17 9 0 19 -6 22 -14 4 -10 17 -15 38 -13 18 1 40 -1 48 -4 43 -18 144 -33 177 -28 37 6 38 7 35 46 -6 81 -37 168 -69 197 -23 20 -63 30 -138 34 -54 3 -88 9 -165 29 -14 4 -79 10 -145 15 -66 4 -138 10 -160 13 -66 10 -77 2 -74 -52 1 -26 0 -51 -3 -57 -3 -5 -6 -26 -6 -46 -1 -35 0 -37 51 -52 46 -14 107 -25 145 -26 14 0 17 -40 2 -40 -5 0 -14 8 -19 18 -6 9 -11 12 -11 5 0 -15 -72 -11 -113 6 -62 25 -70 19 -232 -144 -84 -85 -160 -155 -168 -155 -9 0 -17 -4 -19 -8 -8 -20 -140 -102 -164 -102 -8 0 -14 -5 -14 -10 0 -6 -11 -15 -25 -20 -14 -5 -49 -25 -78 -43 -29 -19 -65 -37 -81 -41 -35 -9 -91 -53 -117 -92 -16 -24 -19 -26 -25 -11 -6 17 -8 17 -25 1 -11 -9 -19 -26 -19 -37 0 -12 -5 -17 -14 -14 -9 4 -16 -3 -20 -17 -3 -14 -20 -31 -41 -40 -23 -11 -35 -24 -35 -37 0 -12 4 -17 11 -13 6 3 14 2 18 -4 3 -6 19 -13 34 -16 40 -7 101 -30 108 -40 4 -5 14 -6 23 -3 8 3 37 -4 63 -15 26 -12 56 -21 66 -19 10 1 30 -5 44 -14 13 -9 27 -14 30 -11 4 3 12 1 18 -4 7 -6 27 -12 44 -13 17 -1 31 -6 31 -11 0 -4 11 -5 24 -2 16 4 30 0 40 -9 8 -8 32 -15 55 -15 23 0 41 -4 41 -9 0 -5 3 -18 7 -28 6 -17 6 -17 -15 0 -11 11 -25 16 -30 13 -5 -3 -43 3 -83 13 -69 18 -87 21 -131 22 -10 0 -18 4 -18 10 0 5 -13 9 -30 9 -16 0 -30 4 -30 8 0 8 -67 29 -112 36 -9 1 -22 7 -30 13 -7 6 -20 11 -28 12 -8 1 -26 2 -40 4 -14 1 -29 5 -35 8 -5 4 -22 9 -37 13 -15 3 -37 16 -48 28 -11 12 -20 18 -20 14 0 -4 -9 -1 -21 7 -11 8 -30 12 -42 9 -19 -5 -20 -3 -9 11 8 9 11 25 7 37 -4 12 -2 20 4 20 17 0 80 43 86 59 3 9 0 11 -10 8 -8 -4 -17 -2 -21 4 -4 6 -14 5 -29 -5 -17 -11 -25 -12 -35 -3 -10 9 -11 9 -6 -3 4 -8 -2 -4 -13 9 -12 13 -21 29 -21 37 0 8 -7 14 -15 14 -9 0 -33 11 -54 24 -21 14 -57 30 -80 36 -66 17 -183 -4 -195 -36 -8 -21 -33 -17 -39 8 -5 19 -8 20 -23 7 -16 -12 -17 -12 -11 4 9 24 -19 22 -33 -3 -14 -25 -40 -15 -40 16 0 13 5 24 10 24 6 0 10 -4 10 -10 0 -5 7 -10 15 -10 9 0 15 10 15 26 0 14 -4 23 -9 20 -5 -4 -11 -2 -13 4 -1 5 -16 -1 -33 -14 -27 -21 -28 -25 -15 -41 14 -17 13 -17 -6 -7 -16 9 -20 18 -16 39 5 26 4 27 -12 14 -14 -12 -19 -12 -25 -2 -5 7 -14 12 -22 11 -28 -4 -39 0 -39 16 0 10 6 14 15 10 8 -3 15 -2 15 2 0 9 55 33 130 57 30 10 60 21 65 25 6 4 37 15 70 25 98 28 224 95 251 134 8 11 21 21 29 21 7 0 23 11 36 25 13 13 30 25 36 25 7 0 48 23 92 51 44 28 82 51 85 50 3 0 16 9 29 22 13 12 42 33 65 46 22 13 52 34 66 45 15 12 44 35 65 51 51 40 83 125 46 125 -8 0 -15 5 -15 10 0 6 -7 10 -15 10 -8 0 -15 6 -15 13 0 8 -4 7 -10 -3 -8 -13 -10 -12 -10 3 0 10 -8 17 -19 17 -11 0 -23 5 -26 10 -3 6 -1 10 4 10 6 0 11 7 11 15 0 21 26 19 50 -5 11 -11 25 -20 30 -20 6 0 10 -6 10 -12 0 -9 4 -8 10 2 6 10 10 11 10 3 0 -7 7 -13 15 -13 19 0 18 76 -1 104 -12 17 -11 23 4 40 16 20 16 20 0 7 -16 -12 -18 -10 -18 26 0 45 -17 74 -64 102 -27 17 -32 26 -28 47 3 18 8 22 15 15 6 -6 24 -11 39 -11 23 0 28 4 28 25 0 14 -5 25 -11 25 -7 0 -9 17 -4 51 5 35 4 49 -3 45 -14 -8 -25 29 -18 60 4 13 2 24 -3 24 -6 0 -8 7 -5 15 4 8 2 15 -4 15 -13 0 -21 35 -11 51 4 7 3 19 -2 26 -7 8 -7 19 1 34 9 17 9 23 0 29 -7 5 -10 15 -7 25 4 9 11 13 17 10 25 -15 7 12 -19 30 -24 16 -27 21 -15 30 22 15 27 63 9 81 -19 20 -19 35 0 28 17 -7 20 7 4 23 -6 6 -12 45 -14 87 -1 42 -5 79 -8 83 -4 3 -14 0 -23 -8 -14 -12 -16 -11 -12 6 2 11 9 19 16 18 7 -2 10 10 7 35 -5 50 -6 51 -14 22 -6 -22 -8 -19 -15 22 -7 47 -7 47 -54 54 -26 5 -49 9 -52 9 -71 16 -115 15 -163 -1 -28 -10 -60 -24 -69 -32 -24 -20 -61 -8 -102 33 -25 25 -33 40 -29 56 4 15 3 20 -6 15 -6 -4 -9 -12 -6 -17 4 -5 -7 -9 -23 -9 -21 0 -31 6 -35 20 -3 10 0 21 7 24 19 9 76 -4 96 -22z m1207 -397 c15 -10 24 -12 28 -4 5 7 12 6 23 -4 10 -8 27 -18 40 -21 12 -4 22 -11 22 -16 0 -4 8 -10 18 -14 36 -12 77 -43 87 -64 5 -12 13 -22 17 -22 4 0 16 -21 27 -46 14 -32 26 -45 38 -43 22 3 69 -16 78 -30 3 -6 15 -11 26 -11 11 0 18 -4 15 -9 -3 -5 5 -24 18 -44 13 -19 27 -46 31 -58 4 -13 14 -31 21 -40 12 -14 12 -22 0 -57 -15 -42 -13 -52 11 -52 17 0 43 -24 43 -39 0 -6 4 -11 8 -11 5 0 16 -18 25 -40 12 -31 13 -48 5 -76 -9 -35 -8 -39 28 -70 21 -19 33 -34 28 -34 -5 0 -1 -7 9 -15 18 -13 33 -55 42 -118 3 -16 7 -33 10 -38 4 -5 2 -9 -3 -9 -6 0 -8 -10 -4 -22 5 -19 3 -21 -9 -11 -9 7 -28 11 -45 10 l-29 -2 -5 70 c-6 81 -24 119 -75 159 -31 25 -35 33 -29 55 3 14 7 44 8 66 1 33 -4 45 -33 73 -18 17 -39 32 -46 32 -22 0 -40 29 -27 42 7 7 12 37 12 68 0 47 -5 62 -34 104 -46 64 -63 75 -114 76 -62 0 -79 12 -86 63 -5 34 -16 53 -49 84 -47 44 -120 88 -167 98 -29 6 -37 15 -23 28 11 12 37 8 60 -8z m-1669 -134 c47 -24 152 -125 152 -146 0 -8 6 -15 13 -15 7 0 23 -18 36 -40 12 -22 28 -40 35 -40 8 0 24 -16 37 -35 13 -19 28 -35 33 -35 10 0 56 -48 56 -59 0 -4 20 -22 45 -39 26 -18 43 -37 40 -42 -3 -6 1 -10 9 -10 28 0 64 -22 69 -42 4 -13 10 -17 18 -12 8 5 10 3 4 -5 -11 -18 -53 -5 -92 30 -19 16 -39 29 -45 29 -6 0 -20 9 -32 20 -83 81 -225 230 -297 311 -32 37 -76 74 -103 87 l-46 23 -73 -32 c-81 -37 -164 -96 -228 -164 -23 -24 -52 -48 -63 -51 -63 -20 -256 -218 -256 -263 0 -9 -14 -49 -30 -89 -29 -68 -30 -75 -20 -132 12 -64 1 -108 -28 -118 -11 -3 -12 0 -3 17 8 14 8 21 1 21 -5 0 -10 19 -10 43 0 23 -7 52 -15 65 -15 20 -14 23 4 38 10 9 17 23 14 30 -7 19 44 145 68 167 10 10 19 23 19 30 0 7 31 46 69 87 87 94 76 84 146 130 33 21 93 70 134 109 40 39 80 71 89 71 8 0 31 10 50 23 49 30 112 56 140 56 12 1 39 -8 60 -18z m722 -329 c0 3 14 -7 31 -23 17 -16 39 -29 49 -29 11 0 27 -14 37 -31 13 -21 23 -29 37 -25 20 5 36 -7 54 -41 8 -14 9 -24 2 -28 -5 -3 -10 -1 -10 4 0 6 -11 11 -24 11 -14 0 -28 5 -31 10 -7 11 -105 77 -147 99 -15 8 -25 18 -22 23 3 4 -1 8 -9 8 -21 0 -29 28 -14 45 10 11 15 10 29 -8 10 -12 18 -19 18 -15z m-649 12 c43 -22 109 -84 109 -101 0 -9 6 -13 15 -9 14 5 65 -39 65 -56 0 -5 4 -8 10 -8 14 0 50 -32 50 -45 0 -5 18 -28 40 -49 22 -22 40 -43 40 -48 0 -15 89 -98 104 -98 8 0 18 -4 21 -10 4 -6 -9 -10 -32 -10 -38 0 -101 31 -116 56 -5 8 -13 12 -19 8 -6 -4 -8 1 -3 15 5 17 2 21 -18 21 -27 0 -71 56 -83 106 -8 31 -38 64 -58 64 -8 0 -17 11 -20 25 -4 14 -12 25 -20 25 -20 0 -61 40 -58 56 2 9 -6 14 -21 14 -13 0 -32 7 -43 15 -33 25 -72 18 -111 -20 -20 -19 -37 -35 -38 -35 -1 0 -12 9 -24 19 -26 23 -22 35 23 62 39 24 143 26 187 3z m-965 -229 c-4 -16 -13 -25 -26 -25 -26 0 -25 15 1 41 25 25 34 19 25 -16z m1500 -29 c36 -36 43 -56 19 -56 -19 0 -85 58 -85 76 0 24 31 15 66 -20z m79 -62 c10 4 19 -3 25 -18 7 -18 14 -22 34 -19 19 4 33 -3 57 -26 17 -17 34 -29 39 -26 5 3 11 1 15 -5 3 -5 1 -10 -5 -10 -6 0 -8 -4 -5 -10 3 -5 -2 -10 -13 -10 -24 0 -72 37 -72 56 0 8 -4 14 -10 14 -5 0 -10 -5 -10 -12 0 -7 -7 -5 -17 5 -10 8 -25 17 -33 19 -29 6 -49 33 -43 58 l6 24 9 -23 c5 -15 13 -21 23 -17z m-1147 -63 c-73 -64 -68 -147 13 -221 52 -48 58 -60 34 -60 -36 0 -130 90 -141 135 -1 6 -5 18 -9 28 -4 10 -3 17 4 17 8 0 9 5 2 17 -7 13 -2 31 17 69 25 49 30 53 67 56 22 2 41 0 43 -4 2 -4 -12 -21 -30 -37z m687 -35 c9 -9 26 -18 38 -21 12 -4 33 -22 46 -40 13 -19 27 -35 32 -35 5 0 9 -11 9 -25 0 -19 10 -29 40 -45 22 -11 40 -25 40 -30 0 -6 9 -10 20 -10 11 0 20 -4 20 -10 0 -5 7 -10 15 -10 8 0 15 -4 15 -9 0 -5 9 -13 20 -16 11 -3 20 -11 20 -17 0 -14 -48 -1 -79 20 -13 9 -31 22 -40 27 -9 6 -32 22 -52 38 -20 15 -41 27 -46 27 -5 0 -31 14 -57 30 -37 24 -47 35 -43 50 4 15 0 20 -14 20 -10 0 -19 3 -19 8 0 13 -59 34 -79 27 -22 -7 -36 9 -27 32 5 13 17 15 66 10 35 -3 66 -12 75 -21z m661 -43 c-11 -12 -27 13 -20 32 7 17 8 17 17 -3 6 -12 7 -25 3 -29z m-871 27 c-3 -5 -2 -10 4 -10 5 0 11 5 13 10 2 7 11 5 23 -4 20 -14 20 -15 -5 -24 -17 -6 -29 -6 -38 1 -10 8 -12 7 -10 -3 2 -7 -11 -17 -30 -22 -18 -5 -35 -15 -39 -23 -7 -19 -33 -19 -33 -1 0 8 -6 17 -12 20 -7 3 -2 4 12 3 24 -2 46 10 79 45 17 18 46 24 36 8z m-841 -26 c11 -28 6 -39 -9 -20 -8 11 -15 23 -15 28 0 14 18 9 24 -8z m126 -134 c0 -5 -7 -10 -15 -10 -8 0 -15 5 -15 10 0 6 7 10 15 10 8 0 15 -4 15 -10z m609 -179 c12 -37 11 -44 -5 -33 -6 4 -14 25 -18 47 -9 47 5 38 23 -14z m1768 -144 c4 -8 26 -17 48 -20 22 -4 41 -11 43 -16 2 -6 9 -8 17 -5 7 3 23 1 34 -5 11 -6 62 -14 113 -17 85 -5 185 -21 263 -42 20 -6 31 -16 33 -30 2 -12 8 -22 13 -22 5 0 9 -7 9 -16 0 -8 -4 -13 -8 -10 -5 3 -14 -11 -21 -30 -9 -25 -17 -34 -28 -30 -8 3 -24 1 -35 -5 -30 -16 -32 -6 -8 41 12 23 19 48 16 55 -6 18 -64 33 -148 38 -36 3 -71 8 -77 11 -6 4 -37 9 -68 12 -32 3 -88 17 -126 31 -37 15 -70 24 -73 20 -8 -8 -44 25 -44 40 0 17 37 17 47 0z m-37 -166 c3 -5 46 -18 95 -30 50 -13 97 -28 105 -36 8 -7 30 -16 47 -20 36 -7 83 -56 83 -86 0 -13 4 -18 11 -13 9 5 10 -7 5 -46 -7 -49 -6 -52 12 -48 19 5 18 4 -2 -27 -11 -19 -29 -36 -39 -38 -10 -3 -21 -15 -24 -27 -4 -14 -8 -18 -13 -10 -5 8 -16 4 -35 -14 -15 -14 -32 -26 -38 -26 -5 0 -7 -7 -3 -15 3 -8 2 -14 -2 -14 -27 4 -52 -3 -52 -16 0 -8 -10 -19 -22 -26 -18 -10 -20 -9 -14 7 5 15 2 15 -13 -3 -11 -13 -24 -23 -30 -23 -6 0 -19 -5 -30 -11 -12 -8 -23 -9 -36 -2 -17 10 -16 12 11 28 16 10 41 26 56 36 15 11 31 19 37 19 12 0 121 105 143 139 25 36 22 68 -8 126 -32 62 -59 91 -87 98 -97 24 -149 38 -164 46 -10 5 -33 15 -50 21 -48 18 -42 34 9 26 23 -4 45 -11 48 -15z m-1880 -56 c0 -9 -6 -12 -15 -9 -8 4 -15 10 -15 15 0 5 7 9 15 9 8 0 15 -7 15 -15z m70 -59 c-14 -14 -24 0 -16 21 6 15 8 15 16 3 6 -9 5 -19 0 -24z m65 -14 c14 -10 17 -32 5 -32 -5 0 -10 6 -10 14 0 8 -6 17 -12 19 -7 3 -8 6 -3 6 6 0 15 -3 20 -7z m488 -136 c3 3 8 0 12 -6 5 -8 0 -10 -13 -8 -13 2 -38 -11 -64 -33 -24 -20 -53 -41 -65 -48 -26 -13 -31 -41 -8 -41 13 0 13 -4 -2 -26 l-17 -27 -9 34 c-5 19 -13 40 -19 46 -8 10 -1 24 23 52 34 39 48 48 90 56 12 2 24 7 27 9 2 3 12 1 22 -4 10 -5 20 -7 23 -4z m168 -137 c17 -34 18 -43 7 -79 -7 -22 -18 -40 -25 -40 -6 0 -13 -5 -15 -10 -2 -6 -21 -13 -43 -16 l-40 -6 25 21 c14 11 21 21 17 21 -4 0 -2 10 5 23 11 21 14 109 3 126 -2 5 7 6 21 3 16 -3 32 -18 45 -43z m-491 -47 c0 -4 -12 -15 -27 -24 -16 -9 -45 -34 -67 -56 -32 -33 -42 -56 -65 -138 -27 -102 -34 -223 -15 -289 15 -55 -2 -99 -30 -76 -9 7 -15 16 -14 19 4 15 -15 98 -24 109 -10 12 -13 113 -6 190 2 23 14 56 26 73 13 18 21 38 18 48 -8 25 9 44 94 101 69 47 110 63 110 43z m255 -65 c-20 -11 -29 -3 -21 19 5 13 9 14 22 3 14 -11 14 -13 -1 -22z m1255 -26 c0 -6 -8 -16 -19 -23 -31 -22 -71 -89 -71 -121 0 -17 7 -38 16 -48 19 -21 12 -49 -11 -49 -21 0 -43 22 -37 38 2 6 -3 12 -12 12 -9 0 -16 7 -16 15 0 8 5 15 12 15 6 0 2 9 -10 20 l-21 20 25 45 c14 25 31 45 38 45 6 0 27 9 46 19 39 22 60 26 60 12z m160 -132 c0 -5 -4 -9 -8 -9 -15 0 -32 24 -32 45 1 19 1 19 20 -4 11 -13 20 -27 20 -32z m-1283 5 c30 -8 69 -126 59 -178 -4 -20 -8 -36 -9 -36 -1 0 -25 -3 -54 -6 l-52 -6 -31 48 c-33 52 -37 79 -16 107 8 10 12 26 9 36 -7 27 48 47 94 35z m1307 -29 c-7 -17 -20 -20 -28 -6 -7 10 3 21 20 21 8 0 11 -6 8 -15z m-8 -77 c-2 -18 -4 -36 -5 -39 -3 -15 -52 -25 -119 -24 -63 1 -75 5 -88 23 -8 12 -21 19 -27 16 -7 -4 -7 -1 1 7 11 12 15 11 26 -4 21 -28 97 -21 134 14 16 15 40 29 53 32 13 2 25 5 26 6 2 0 1 -14 -1 -31z m77 -10 c2 -7 0 -21 -5 -31 -5 -9 -5 -17 -1 -16 28 5 53 -3 53 -16 0 -8 -4 -15 -10 -15 -5 0 -10 5 -10 10 0 6 -8 10 -17 10 -32 0 -46 16 -39 44 7 28 21 34 29 14z m-1103 -29 c0 -5 -4 -9 -9 -9 -5 0 -11 -8 -13 -17 -3 -11 -6 -6 -9 13 -4 26 -2 30 13 26 10 -2 18 -8 18 -13z m95 -53 c22 -10 41 -27 51 -50 33 -68 -10 -87 -91 -38 -53 31 -69 67 -40 89 24 17 37 16 80 -1z m1048 -24 c-1 -5 5 -9 15 -8 14 1 18 -9 20 -49 2 -27 7 -54 13 -59 39 -41 -52 -441 -116 -510 -12 -13 -27 -36 -34 -53 -6 -16 -40 -59 -74 -94 -83 -87 -100 -100 -116 -90 -11 7 -7 17 19 49 17 22 40 42 50 45 9 2 20 17 24 32 4 15 14 34 22 42 8 8 12 23 9 34 -7 20 19 78 42 95 8 5 13 19 11 29 -2 13 5 23 20 30 21 9 23 15 19 53 -3 29 -1 45 8 48 6 3 12 19 13 36 0 17 5 34 10 37 5 3 12 37 15 76 3 38 10 71 16 73 6 2 11 8 11 13 0 6 -4 7 -10 4 -14 -9 -23 40 -11 63 14 26 14 35 0 26 -8 -5 -8 -1 0 13 7 15 7 23 -2 32 -15 15 -16 34 -2 43 13 10 31 4 28 -10z m-1178 -1 c3 -6 -1 -13 -8 -18 -15 -8 -49 -68 -53 -91 -4 -23 -14 -27 -15 -6 -2 29 7 94 13 98 9 8 44 25 50 26 4 0 9 -4 13 -9z m585 -30 c0 -4 11 -24 24 -44 21 -30 22 -38 10 -48 -21 -17 -17 -31 7 -24 19 6 20 5 8 -17 -7 -12 -12 -38 -10 -56 5 -65 -47 -83 -98 -34 -20 20 -31 44 -40 90 -13 66 -9 95 17 125 15 17 82 25 82 8z m-245 -161 c0 -49 -20 -48 -22 1 -1 27 2 39 10 36 7 -2 12 -19 12 -37z m-399 21 c-4 -5 0 -11 6 -14 7 -2 10 -8 5 -12 -10 -12 -31 11 -23 24 4 6 9 11 12 11 3 0 3 -4 0 -9z m-700 -66 c1 -17 4 -51 8 -78 5 -33 4 -47 -4 -47 -7 0 -14 9 -17 20 -3 11 -9 20 -14 20 -5 0 -9 8 -9 17 0 9 -5 32 -12 50 -10 29 -10 36 2 44 26 16 45 5 46 -26z m1104 -19 c0 -14 -29 -31 -38 -22 -2 3 -2 12 1 21 8 19 37 20 37 1z m-320 -98 c0 -26 -9 -19 -15 11 -2 12 0 19 6 16 5 -4 9 -16 9 -27z m290 -14 c0 -3 -8 -16 -18 -29 -13 -16 -23 -21 -32 -15 -12 7 -11 12 4 29 18 20 46 29 46 15z m-1025 -49 c17 -14 17 -17 4 -30 -13 -13 -18 -13 -34 -2 -11 9 -16 20 -12 31 8 20 16 20 42 1z m1568 -431 c-3 -9 -1 -19 5 -23 6 -3 8 -11 4 -16 -10 -15 -49 -35 -67 -35 -8 0 -24 -9 -35 -20 -25 -25 -52 -27 -43 -3 5 12 3 14 -8 9 -8 -4 -5 0 5 8 11 9 26 16 33 16 15 0 19 3 73 49 41 36 41 36 33 15z m-159 -116 c-9 -14 -23 2 -17 18 4 12 8 13 14 3 4 -7 5 -17 3 -21z m-44 -8 c-6 -11 -16 -20 -23 -21 -7 0 -20 -2 -30 -4 -9 -2 -15 1 -11 6 3 5 10 7 15 4 5 -4 9 -2 9 3 0 7 31 27 48 31 1 1 -2 -8 -8 -19z"/>
<path d="M2889 4588 c-7 -45 -2 -63 19 -66 12 -2 22 -8 22 -13 0 -6 -4 -7 -10 -4 -5 3 -14 4 -20 0 -14 -8 0 -35 18 -35 12 0 13 -3 4 -12 -17 -17 -15 -39 2 -32 8 3 19 20 26 37 6 18 16 40 21 49 10 20 -2 31 -24 22 -9 -3 -22 7 -35 28 -12 18 -22 30 -23 26z"/>
<path d="M3020 4560 c0 -12 9 -30 20 -42 23 -25 25 -18 8 29 -13 37 -28 44 -28 13z"/>
<path d="M3154 4532 c-16 -25 -7 -44 15 -32 10 5 21 6 25 3 3 -3 6 -2 6 4 0 5 -8 17 -18 26 -16 15 -19 15 -28 -1z"/>
<path d="M3212 4478 c-17 -17 -15 -27 6 -23 9 2 23 4 31 4 11 1 11 4 1 16 -15 18 -22 19 -38 3z"/>
<path d="M2925 4268 c-10 -30 1 -83 18 -86 22 -4 24 43 2 65 -8 8 -13 19 -10 24 4 5 4 9 0 9 -3 0 -8 -6 -10 -12z"/>
<path d="M3400 4250 c0 -9 23 -30 32 -30 4 0 8 9 8 19 0 14 -6 19 -20 18 -11 -1 -20 -4 -20 -7z"/>
<path d="M3442 4151 c2 -7 7 -12 11 -12 12 1 9 15 -3 20 -7 2 -11 -2 -8 -8z"/>
<path d="M3475 3976 c-3 -9 -7 -23 -10 -31 -2 -8 -1 -15 4 -15 5 0 11 12 14 28 6 30 0 44 -8 18z"/>
<path d="M3480 3861 c-10 -25 -9 -35 9 -67 16 -32 20 -35 21 -16 0 24 15 30 24 10 3 -7 3 -2 -1 12 -3 14 -13 31 -22 38 -15 12 -14 13 2 8 20 -6 21 -2 7 25 -15 27 -26 24 -40 -10z"/>
<path d="M3525 3587 c-8 -19 -2 -31 13 -26 5 2 6 13 2 24 -7 19 -8 19 -15 2z"/>
<path d="M3050 3479 c0 -5 3 -9 8 -10 4 0 15 -2 25 -4 11 -2 16 2 14 8 -4 14 -47 19 -47 6z"/>
<path d="M3370 3233 c0 -11 7 -20 15 -20 18 0 16 28 -2 35 -8 2 -13 -5 -13 -15z"/>
<path d="M2967 3171 c-5 -22 1 -33 14 -25 12 7 12 44 0 44 -5 0 -11 -9 -14 -19z"/>
<path d="M2835 3120 c-4 -6 -3 -14 0 -20 9 -15 35 -12 35 4 0 17 -27 29 -35 16z"/>
<path d="M3373 3090 c-13 -5 -23 -16 -23 -25 0 -14 3 -14 25 2 13 10 25 21 25 26 0 8 2 8 -27 -3z"/>
<path d="M2813 3083 c-20 -7 -15 -19 7 -20 11 -1 20 2 20 7 0 12 -13 18 -27 13z"/>
<path d="M3337 3013 c-4 -3 -7 -19 -7 -34 0 -18 -6 -29 -17 -32 -14 -4 -12 -5 5 -6 18 -1 22 4 22 27 l1 27 14 -25 c14 -25 14 -25 15 -2 0 12 4 22 9 22 5 0 11 7 15 15 6 16 -14 16 -26 0 -5 -6 -11 -5 -16 3 -5 7 -11 9 -15 5z"/>
<path d="M3175 2812 c-5 -4 -11 -13 -13 -20 -2 -10 2 -10 18 -2 11 6 20 15 20 20 0 12 -11 13 -25 2z"/>
<path d="M3087 2776 c-9 -9 -22 -13 -30 -10 -16 6 -29 -27 -17 -46 11 -18 49 5 61 37 12 32 6 39 -14 19z"/>
<path d="M2935 2720 c-4 -6 -1 -9 7 -8 7 2 14 -6 14 -17 1 -11 2 -24 3 -30 1 -5 8 1 17 13 12 18 13 26 4 37 -14 17 -36 19 -45 5z"/>
<path d="M3007 2724 c-3 -3 -3 -13 0 -21 5 -12 7 -12 14 -1 15 23 4 40 -14 22z"/>
<path d="M2858 2655 c-15 -34 -10 -47 10 -22 14 18 25 57 15 57 -5 0 -16 -16 -25 -35z"/>
<path d="M2600 2653 c0 -19 11 -43 21 -43 13 0 11 14 -6 36 -8 10 -15 14 -15 7z"/>
<path d="M2636 2645 c-4 -10 1 -15 14 -15 13 0 18 5 14 15 -4 8 -10 15 -14 15 -4 0 -10 -7 -14 -15z"/>
<path d="M2437 2354 c-8 -8 1 -24 14 -24 5 0 9 7 9 15 0 15 -12 20 -23 9z"/>
</g>
<g id="layer105" fill="#e9b750" stroke="none">
<path d="M2475 5585 c-218 -25 -446 -80 -653 -156 -249 -92 -565 -272 -782 -445 -109 -87 -337 -315 -424 -424 -277 -346 -480 -781 -566 -1206 -68 -339 -68 -769 0 -1108 86 -425 289 -860 566 -1206 87 -109 315 -337 424 -424 350 -279 790 -485 1210 -565 215 -41 272 -46 550 -46 280 0 351 6 555 46 422 83 857 287 1205 565 109 87 337 315 424 424 327 410 540 919 601 1435 30 261 16 623 -35 879 -86 425 -289 860 -566 1206 -87 109 -315 337 -424 424 -350 279 -786 483 -1210 566 -257 50 -621 64 -875 35z m-429 -813 c17 -5 42 -17 55 -25 22 -15 28 -14 69 5 28 12 74 22 121 25 66 5 78 3 95 -14 10 -11 31 -28 45 -37 24 -15 29 -15 80 0 64 20 133 25 174 14 17 -5 53 -12 80 -15 28 -3 61 -9 75 -12 25 -6 96 -56 115 -81 7 -8 28 -11 65 -9 92 6 198 -26 257 -77 12 -10 41 -20 64 -22 72 -6 169 -79 169 -126 0 -18 5 -28 13 -26 34 6 150 -27 187 -53 22 -16 43 -29 47 -29 5 0 23 -14 42 -30 18 -17 37 -30 41 -30 4 0 11 -21 16 -47 l9 -48 50 -8 c28 -4 60 -13 73 -19 25 -13 82 -91 82 -112 0 -7 3 -16 7 -20 4 -4 9 -35 10 -69 1 -34 2 -65 2 -70 1 -4 12 -13 26 -19 14 -6 25 -15 25 -20 0 -5 12 -27 27 -49 25 -38 26 -43 15 -85 -12 -44 -12 -45 24 -77 20 -17 43 -36 50 -40 20 -11 36 -82 38 -162 1 -66 2 -70 23 -67 24 3 44 -5 110 -47 32 -20 45 -37 57 -75 9 -26 16 -58 16 -71 0 -12 6 -38 14 -56 8 -19 14 -65 15 -102 0 -73 -16 -110 -75 -173 -14 -16 -38 -45 -53 -64 -14 -19 -32 -41 -38 -48 -7 -7 -13 -17 -13 -22 0 -4 -43 -52 -97 -106 -53 -55 -117 -124 -142 -154 -63 -76 -76 -88 -156 -146 -77 -56 -188 -114 -217 -114 -22 0 -24 -32 -3 -50 8 -7 15 -20 15 -30 0 -9 10 -25 21 -36 43 -38 79 -159 79 -267 0 -89 -21 -191 -75 -362 -25 -79 -122 -230 -194 -302 -93 -93 -251 -170 -466 -226 -22 -5 -53 -15 -70 -22 -16 -7 -91 -17 -166 -24 -114 -9 -146 -9 -190 3 -71 19 -106 32 -114 45 -3 6 -30 18 -59 26 -45 13 -53 19 -49 35 3 10 15 26 28 34 20 13 26 13 51 -1 16 -8 47 -21 69 -28 22 -7 64 -23 92 -36 52 -22 56 -23 155 -10 57 8 114 13 128 12 13 0 47 8 75 18 27 11 84 30 125 42 41 13 86 29 100 36 14 7 30 13 35 13 14 0 105 60 131 85 11 11 33 31 50 45 31 26 55 65 99 160 13 30 34 72 46 92 11 21 23 57 26 80 3 24 9 48 14 54 18 22 37 152 35 234 -2 69 -8 97 -31 148 -22 50 -31 61 -44 55 -9 -4 -59 -8 -111 -7 -90 0 -98 2 -140 31 -25 17 -58 45 -74 62 -17 17 -38 31 -47 31 -10 0 -24 7 -32 15 -9 8 -17 11 -19 6 -2 -5 -46 2 -98 15 -52 13 -104 24 -115 24 -12 0 -26 5 -33 12 -6 6 -14 9 -17 6 -4 -3 9 -21 27 -40 40 -39 63 -111 54 -162 -5 -24 -23 -51 -57 -84 l-51 -50 17 -32 c13 -25 16 -53 13 -124 -3 -82 -6 -95 -32 -129 -16 -21 -38 -42 -48 -48 -26 -14 -126 -14 -168 -1 -19 6 -47 14 -62 17 -42 8 -84 50 -118 117 -17 34 -35 65 -41 68 -5 4 -12 47 -15 96 -4 78 -3 93 15 122 12 18 32 37 46 42 29 11 32 40 10 93 -28 66 -34 114 -18 137 16 23 83 60 110 60 11 0 6 6 -14 16 -18 9 -33 20 -33 25 0 5 -7 6 -15 3 -8 -3 -30 0 -50 6 -30 10 -39 9 -53 -3 -34 -31 -107 -57 -159 -57 -87 0 -148 35 -190 110 -32 56 -31 56 -130 9 -92 -44 -144 -107 -166 -201 -25 -103 -27 -217 -6 -305 10 -40 20 -76 23 -81 3 -5 8 -29 11 -54 14 -116 87 -286 145 -338 3 -3 23 -30 45 -60 22 -30 42 -57 46 -60 4 -3 49 -43 99 -90 51 -47 98 -87 104 -90 7 -3 28 -17 47 -33 20 -15 42 -27 49 -27 9 0 8 -6 -5 -20 -10 -11 -27 -20 -37 -20 -39 0 -144 60 -193 109 -27 28 -55 51 -61 51 -7 0 -34 25 -61 57 -26 31 -72 80 -102 109 -52 51 -66 70 -93 124 -6 14 -19 34 -29 45 -14 17 -46 118 -81 260 -5 22 -13 72 -18 110 -4 39 -13 83 -19 98 -38 97 20 309 104 379 41 35 132 76 207 93 74 18 76 19 67 42 -6 15 -5 31 1 43 15 27 15 27 -49 33 -44 4 -69 12 -95 32 -19 14 -37 25 -39 23 -2 -2 -28 13 -58 32 -30 19 -65 40 -79 46 -14 7 -38 24 -54 38 -16 14 -37 28 -47 31 -11 4 -19 13 -19 21 0 8 -6 14 -13 14 -7 0 -20 8 -29 18 -28 30 -61 52 -80 52 -10 0 -18 4 -18 8 0 11 -86 102 -109 117 -68 41 -88 58 -100 86 -7 17 -28 40 -46 50 -18 11 -38 33 -45 49 -6 16 -20 36 -31 46 -10 9 -19 22 -19 27 0 22 -35 87 -46 87 -14 0 -84 130 -84 155 0 9 -9 19 -20 22 -11 3 -20 11 -20 18 0 7 -9 24 -20 38 -19 24 -20 32 -10 117 6 51 17 105 25 120 8 16 15 41 15 55 0 37 39 126 65 150 12 11 51 63 88 115 89 128 325 349 447 419 53 30 86 55 88 67 10 59 47 128 85 155 22 16 47 29 56 29 9 0 34 6 55 14 43 15 123 14 172 -2z m341 -2617 c52 -36 82 -200 45 -245 -16 -20 -23 -21 -84 -15 -72 8 -94 23 -118 82 -16 43 -6 113 22 143 22 23 72 49 98 50 9 0 25 -7 37 -15z m809 -243 c24 -15 74 -120 74 -153 0 -36 -14 -95 -29 -117 -4 -8 -26 -16 -48 -19 -36 -5 -45 -1 -82 32 -22 21 -41 45 -41 54 0 9 -5 22 -11 28 -7 7 -8 35 -3 82 6 64 10 73 33 86 28 15 89 19 107 7z"/>
<path d="M1862 4699 c-48 -19 -82 -55 -82 -86 0 -5 37 -8 83 -8 113 0 184 -24 245 -84 83 -81 166 -175 184 -208 9 -17 42 -57 72 -89 31 -32 56 -63 56 -70 0 -6 23 -36 50 -65 28 -29 50 -57 50 -61 0 -3 14 -22 30 -40 17 -18 30 -35 30 -39 0 -4 14 -12 30 -19 17 -7 34 -18 38 -24 4 -7 33 -29 64 -49 31 -21 60 -42 63 -47 3 -6 12 -10 20 -10 7 0 37 -16 67 -35 l53 -35 3 29 c3 26 -9 93 -40 226 -5 22 -11 67 -14 100 -3 33 -9 74 -14 90 -8 26 -19 116 -26 210 -1 17 -7 55 -13 85 -6 30 -12 83 -13 117 -1 58 -3 62 -27 67 -14 3 -57 10 -94 17 -61 12 -74 11 -120 -5 -28 -10 -62 -27 -77 -37 -24 -18 -29 -19 -61 -5 -20 8 -48 31 -63 50 -22 29 -34 36 -62 36 -36 0 -85 -20 -116 -48 -22 -19 -60 -12 -141 28 -72 35 -102 36 -175 9z"/>
<path d="M1844 4549 c-64 -12 -198 -88 -296 -169 -108 -89 -222 -194 -254 -234 -81 -101 -174 -236 -197 -286 -49 -109 -71 -253 -45 -303 6 -12 14 -28 18 -36 9 -21 30 -25 30 -6 0 8 9 33 20 54 10 21 24 60 31 87 6 27 17 54 24 59 7 6 26 32 43 58 50 79 179 197 249 227 6 3 47 39 91 81 44 42 92 79 107 83 15 4 44 18 65 32 33 22 124 54 156 54 24 0 125 -77 165 -125 105 -129 295 -325 313 -325 13 0 127 -89 177 -138 18 -17 37 -32 41 -32 10 0 62 -36 98 -67 13 -13 30 -23 37 -23 7 0 13 -4 13 -10 0 -5 6 -10 13 -10 7 0 18 -5 25 -12 6 -6 23 -12 38 -14 14 -2 34 -9 43 -16 31 -25 110 -62 118 -55 4 4 2 34 -5 65 -7 32 -12 71 -12 88 0 37 -39 80 -99 108 -48 22 -219 131 -236 150 -5 6 -23 18 -40 26 -47 24 -62 38 -166 159 -69 79 -169 209 -197 255 -9 16 -37 50 -62 75 -25 25 -61 66 -80 90 -49 61 -58 69 -93 88 -46 24 -86 30 -133 22z"/>
<path d="M3536 4269 c1 -28 5 -53 8 -56 3 -3 3 -17 0 -29 -4 -14 -2 -24 4 -24 6 0 10 -15 10 -32 -1 -48 37 -235 52 -253 7 -9 11 -37 9 -72 -2 -32 0 -64 5 -72 5 -7 10 -45 12 -83 2 -39 8 -76 14 -82 12 -15 15 -91 5 -127 -6 -25 -4 -27 42 -39 26 -7 73 -15 103 -16 156 -10 191 -14 246 -28 32 -8 78 -17 102 -19 l42 -4 0 59 c0 73 -18 111 -77 164 -45 40 -46 42 -34 72 25 60 -5 128 -70 157 -34 16 -39 22 -33 39 27 83 11 155 -51 219 -28 29 -39 34 -84 35 -28 0 -56 4 -61 7 -5 3 -13 25 -17 48 -8 54 -67 117 -146 157 -33 16 -65 30 -71 30 -7 0 -11 -19 -10 -51z"/>
<path d="M1752 4135 c-79 -42 -145 -91 -197 -145 -22 -23 -58 -51 -80 -62 -48 -25 -157 -127 -194 -183 -15 -22 -40 -75 -55 -118 -33 -90 -36 -168 -11 -265 9 -34 14 -66 10 -71 -18 -30 166 -249 280 -333 22 -16 73 -59 113 -96 41 -37 86 -74 102 -83 15 -8 41 -27 58 -41 52 -44 118 -71 141 -59 27 15 175 69 233 85 76 22 150 60 208 108 30 25 65 48 76 52 12 3 29 15 39 26 10 11 23 20 30 20 12 0 100 55 123 77 7 7 17 13 22 13 5 0 15 6 22 13 8 6 27 20 43 29 59 32 215 153 215 166 0 6 4 12 9 12 15 0 9 43 -7 63 -8 9 -23 17 -33 17 -10 0 -21 5 -24 10 -4 6 -28 20 -53 31 -144 64 -284 153 -347 219 -16 17 -70 60 -120 95 -49 34 -112 87 -139 116 -27 30 -81 88 -120 130 -39 41 -90 97 -114 123 -87 95 -130 104 -230 51z m244 -227 c48 -20 265 -219 291 -265 9 -18 20 -33 23 -33 3 0 14 -16 24 -35 11 -19 23 -35 28 -35 5 0 19 -10 32 -22 12 -13 40 -31 61 -41 34 -16 37 -20 22 -29 -29 -16 -177 19 -177 42 0 4 -19 20 -41 36 -23 16 -59 56 -80 90 -22 34 -76 96 -120 138 -140 131 -160 139 -213 81 -32 -34 -59 -44 -71 -26 -3 5 -19 12 -35 16 -17 4 -30 13 -30 20 0 17 55 64 83 70 12 2 31 6 42 9 31 8 130 -2 161 -16z m-490 -349 c4 -7 -9 -25 -29 -43 -20 -17 -43 -48 -51 -69 -14 -35 -14 -42 0 -75 8 -20 37 -57 64 -82 56 -52 64 -80 25 -80 -38 0 -92 25 -104 48 -6 12 -20 24 -31 27 -11 3 -20 13 -20 20 0 8 -8 20 -18 27 -10 7 -22 31 -25 52 -3 22 -12 43 -19 47 -28 18 57 117 111 130 43 11 89 10 97 -2z m649 -61 c6 -7 23 -19 38 -27 33 -17 97 -93 97 -115 0 -8 21 -30 48 -47 26 -18 49 -36 52 -39 3 -4 26 -15 51 -24 49 -19 106 -62 96 -73 -16 -15 -139 31 -218 84 -46 30 -97 62 -114 70 -16 9 -54 40 -83 69 -29 30 -59 54 -66 54 -7 0 -39 -13 -72 -29 -32 -15 -69 -31 -81 -35 -12 -4 -38 -27 -58 -52 l-37 -45 -34 21 c-18 12 -42 20 -51 18 -22 -3 -24 11 -6 39 19 29 165 114 238 139 48 16 185 10 200 -8z m-345 -279 c0 -45 55 -144 108 -196 12 -12 22 -26 22 -31 0 -6 12 -18 28 -27 64 -41 127 -133 75 -109 -10 4 -31 8 -48 9 -16 0 -44 8 -61 17 -37 20 -164 141 -164 156 0 6 -4 12 -8 14 -16 6 -68 93 -81 134 -16 51 -11 61 30 58 18 -1 42 1 53 6 31 11 46 1 46 -31z"/>
<path d="M3670 3332 c0 -6 4 -22 10 -37 7 -18 6 -35 -3 -58 -18 -45 -11 -84 16 -91 33 -8 227 -35 267 -38 19 -1 43 -5 52 -10 10 -5 37 -13 60 -18 37 -7 69 -16 138 -35 8 -2 29 -8 45 -13 17 -5 53 -10 82 -11 72 -3 73 4 31 149 -24 80 -32 88 -95 95 -32 3 -110 16 -173 27 -63 12 -171 24 -240 28 -69 4 -140 11 -157 15 -21 5 -33 4 -33 -3z"/>
<path d="M3586 3060 c-38 -42 -39 -60 -5 -60 10 0 19 -6 19 -14 0 -9 17 -16 48 -21 26 -4 62 -13 81 -21 32 -14 54 -17 206 -29 77 -6 214 -39 257 -61 19 -10 28 -22 28 -38 0 -31 -71 -109 -91 -101 -9 3 -27 2 -41 -4 -47 -18 -55 2 -24 59 22 40 26 54 16 60 -13 8 -109 23 -225 36 -87 9 -286 62 -307 81 -11 10 -16 24 -12 35 8 27 -6 22 -37 -13 -66 -74 -131 -139 -139 -139 -5 0 -23 -13 -40 -30 -17 -16 -43 -37 -58 -45 -15 -9 -40 -24 -57 -35 -16 -11 -43 -26 -60 -34 -16 -9 -38 -20 -47 -26 -38 -22 -54 -30 -73 -40 -11 -6 -33 -19 -50 -30 -16 -11 -42 -25 -57 -31 -16 -6 -28 -15 -28 -20 0 -5 -12 -14 -27 -20 -16 -6 -41 -26 -56 -45 -16 -19 -33 -34 -38 -34 -6 0 -27 -15 -47 -34 -20 -19 -48 -43 -61 -53 l-24 -19 53 -22 c30 -12 71 -25 92 -28 21 -4 38 -10 38 -15 0 -5 3 -8 8 -7 4 2 27 -3 52 -10 25 -8 77 -23 115 -34 39 -12 77 -23 85 -26 8 -3 26 -7 40 -9 14 -2 44 -11 68 -19 69 -23 84 -19 115 30 15 24 27 48 27 54 0 6 15 21 33 34 26 19 46 23 107 24 58 1 84 7 115 24 22 13 53 30 68 38 16 8 57 42 92 76 82 79 97 130 54 185 -10 13 -19 29 -19 36 0 27 -59 63 -132 79 -83 19 -208 65 -208 77 0 13 47 22 77 14 15 -3 45 -15 67 -26 22 -10 54 -19 72 -19 18 0 36 -4 39 -10 3 -5 17 -10 29 -10 13 0 29 -6 35 -14 7 -8 29 -17 49 -21 47 -8 81 -36 126 -105 42 -64 49 -122 16 -140 -11 -6 -20 -7 -20 -3 0 4 -10 -11 -22 -34 -12 -24 -28 -43 -35 -43 -7 0 -13 -7 -13 -15 0 -13 -16 -19 -45 -16 -6 0 -28 -15 -50 -35 -22 -20 -59 -45 -83 -56 -23 -11 -44 -23 -46 -27 -2 -3 6 -19 19 -35 l24 -30 51 17 c57 18 142 80 210 152 25 26 86 89 135 140 121 123 163 172 185 215 10 19 30 46 45 60 42 39 81 103 88 143 l6 37 -72 -2 c-40 -1 -81 3 -92 9 -11 6 -36 14 -55 17 -19 3 -51 10 -70 16 -50 16 -70 20 -110 26 -19 2 -55 8 -80 14 -25 5 -85 14 -135 21 -49 6 -103 17 -119 25 -40 19 -39 19 -80 -26z"/>
<path d="M2253 2490 c-39 -23 -42 -52 -13 -110 19 -38 66 -70 102 -70 27 0 60 58 52 95 -6 29 -77 104 -99 105 -5 0 -25 -9 -42 -20z"/>
<path d="M3477 2229 c-23 -14 -47 -62 -47 -96 1 -17 14 -43 34 -67 32 -38 34 -38 70 -26 42 14 56 35 56 86 0 30 -7 44 -40 76 -44 41 -47 42 -73 27z"/>
<path d="M2666 2159 c-24 -19 -27 -26 -21 -58 9 -47 27 -66 67 -69 83 -6 125 -30 152 -84 20 -39 42 -34 58 14 11 32 12 53 5 83 -16 66 -38 88 -108 108 -111 30 -122 31 -153 6z"/>
<path d="M2574 1775 c10 -67 41 -132 65 -140 12 -3 21 -14 21 -24 0 -34 43 -61 108 -67 55 -6 62 -5 68 12 3 10 9 27 14 36 14 26 29 130 23 161 -5 24 -10 28 -27 23 -56 -16 -79 -18 -123 -6 -27 6 -55 18 -63 25 -8 7 -32 17 -54 21 l-39 7 7 -48z"/>
</g>
<g id="layer106" fill="#f6f139" stroke="none">
<path d="M2475 5585 c-218 -25 -446 -80 -653 -156 -249 -92 -565 -272 -782 -445 -109 -87 -337 -315 -424 -424 -277 -346 -480 -781 -566 -1206 -68 -339 -68 -769 0 -1108 86 -425 289 -860 566 -1206 87 -109 315 -337 424 -424 350 -279 790 -485 1210 -565 215 -41 272 -46 550 -46 280 0 351 6 555 46 422 83 857 287 1205 565 109 87 337 315 424 424 327 410 540 919 601 1435 30 261 16 623 -35 879 -86 425 -289 860 -566 1206 -87 109 -315 337 -424 424 -350 279 -786 483 -1210 566 -257 50 -621 64 -875 35z m-420 -818 c80 -30 83 -30 132 -7 63 30 179 30 203 1 8 -10 27 -26 41 -35 24 -15 29 -15 70 0 79 28 137 27 320 -8 45 -8 66 -19 103 -53 44 -41 49 -43 99 -41 84 5 201 -29 252 -74 11 -10 40 -20 65 -24 70 -11 170 -81 170 -121 0 -18 11 -23 82 -39 80 -18 123 -40 220 -113 20 -15 37 -34 38 -42 0 -8 5 -30 12 -48 9 -25 18 -33 38 -34 47 -1 74 -9 105 -33 34 -27 88 -127 79 -149 -3 -8 -1 -18 4 -21 5 -3 7 -25 5 -49 -4 -37 -2 -44 18 -55 13 -7 37 -34 52 -60 28 -45 31 -68 13 -127 -4 -16 6 -30 48 -64 60 -48 68 -70 70 -191 2 -63 3 -65 26 -63 24 2 50 -9 117 -51 32 -21 63 -88 63 -137 0 -15 6 -42 14 -60 8 -19 15 -66 15 -104 0 -64 -2 -74 -35 -122 -20 -29 -40 -53 -45 -53 -5 0 -9 -7 -9 -15 0 -8 -5 -15 -10 -15 -6 0 -13 -7 -17 -16 -3 -9 -19 -30 -34 -47 -16 -17 -29 -35 -29 -40 0 -5 -43 -52 -97 -105 -53 -53 -118 -123 -144 -154 -26 -31 -56 -66 -66 -76 -23 -24 -189 -142 -200 -142 -4 0 -26 -9 -48 -19 -22 -11 -48 -22 -57 -25 -22 -7 -23 -20 -3 -40 8 -8 15 -21 15 -29 0 -8 9 -22 21 -33 25 -23 43 -64 65 -150 17 -71 15 -207 -5 -299 -21 -94 -74 -249 -101 -295 -64 -107 -113 -172 -166 -217 -66 -57 -212 -135 -309 -164 -38 -12 -85 -28 -103 -35 -18 -8 -41 -14 -51 -14 -10 0 -34 -6 -52 -14 -33 -13 -85 -20 -233 -31 -81 -6 -164 8 -215 38 -71 40 -86 47 -108 47 -28 0 -37 14 -23 40 20 37 47 44 86 21 19 -12 40 -21 45 -21 6 0 43 -14 82 -32 l72 -31 100 13 c55 7 114 13 130 12 17 -1 53 7 80 18 28 10 84 29 125 41 41 13 80 26 86 31 6 4 28 14 50 22 48 17 93 47 158 106 54 50 84 93 110 160 9 25 28 62 42 83 13 20 29 61 35 90 6 28 15 61 21 71 17 32 34 157 32 241 -1 65 -7 93 -29 143 -22 50 -31 61 -44 55 -9 -4 -59 -8 -111 -8 -90 1 -98 2 -140 32 -25 17 -58 45 -74 62 -17 17 -38 31 -47 31 -10 0 -24 7 -32 15 -9 8 -17 11 -19 6 -2 -5 -46 2 -98 15 -52 13 -107 24 -122 24 -14 0 -28 6 -31 13 -2 6 -7 9 -11 6 -4 -4 5 -17 19 -30 32 -29 65 -100 65 -139 0 -46 -16 -77 -66 -125 -46 -43 -47 -45 -30 -69 12 -18 16 -48 16 -110 0 -98 -6 -117 -51 -169 -34 -38 -34 -39 -113 -39 -44 0 -83 5 -89 11 -6 6 -22 11 -34 11 -57 0 -113 53 -153 142 -11 26 -24 48 -30 50 -10 3 -23 92 -21 147 2 45 30 93 64 109 33 16 33 24 1 128 l-27 85 22 23 c12 13 40 32 62 41 l40 18 -23 22 c-17 17 -28 20 -45 14 -13 -5 -23 -5 -23 0 0 5 -11 12 -25 15 -19 5 -35 0 -58 -18 -18 -14 -58 -32 -89 -40 -101 -26 -194 13 -245 104 -32 56 -29 56 -129 9 -78 -37 -137 -100 -160 -171 -9 -29 -19 -100 -23 -158 -5 -91 -3 -117 18 -195 13 -49 25 -105 27 -122 9 -90 70 -240 123 -306 23 -29 55 -70 71 -92 17 -22 34 -44 38 -50 21 -24 196 -180 206 -184 6 -2 23 -14 38 -27 16 -12 37 -26 49 -29 19 -6 20 -8 3 -26 -9 -10 -27 -19 -38 -19 -38 0 -143 59 -193 108 -26 26 -59 53 -73 60 -14 7 -43 36 -65 64 -22 28 -63 74 -92 102 -44 44 -79 95 -131 191 -7 13 -24 70 -37 127 -14 57 -30 117 -35 134 -6 17 -10 46 -10 65 0 19 -7 61 -15 92 -38 147 6 317 105 404 38 34 125 72 205 91 l72 17 -10 28 c-6 19 -5 32 3 42 10 12 9 16 -4 21 -9 4 -19 4 -22 1 -10 -9 -87 14 -118 36 -17 12 -39 23 -49 24 -17 3 -35 15 -94 63 -7 6 -16 10 -22 10 -5 0 -33 18 -62 40 -30 22 -57 40 -61 40 -5 0 -8 7 -8 15 0 8 -6 15 -13 15 -7 0 -20 8 -29 18 -26 28 -61 52 -78 52 -8 0 -28 18 -43 40 -16 22 -34 40 -42 40 -7 0 -17 9 -20 20 -3 11 -12 20 -19 20 -22 0 -89 59 -104 91 -8 17 -28 37 -43 45 -16 8 -36 29 -45 47 -9 17 -23 39 -31 48 -19 22 -53 90 -53 106 0 7 -7 13 -15 13 -8 0 -32 36 -57 86 -23 47 -48 88 -55 91 -7 3 -13 10 -13 17 0 6 -9 22 -20 36 -17 22 -19 35 -13 110 3 47 14 107 24 133 11 26 19 57 19 68 0 30 49 128 71 142 10 6 19 15 19 19 0 14 126 183 158 213 19 16 66 62 106 100 101 98 183 163 263 206 51 27 69 43 71 60 10 77 88 176 145 184 12 2 36 8 52 13 47 15 125 10 180 -11z m338 -2615 c55 -60 78 -210 38 -246 -17 -15 -30 -17 -83 -11 -70 8 -93 23 -114 74 -31 74 -7 147 59 180 51 26 79 26 100 3z m802 -240 c25 -18 68 -100 72 -137 6 -47 -11 -118 -33 -140 -8 -8 -32 -15 -53 -15 -30 0 -44 7 -72 38 -52 54 -61 83 -53 164 6 60 10 70 33 83 28 15 89 19 106 7z"/>
<path d="M1874 4700 c-59 -19 -63 -23 -92 -82 -2 -5 29 -8 69 -8 43 0 99 -8 140 -20 59 -18 78 -30 131 -83 99 -99 150 -156 180 -204 15 -24 48 -63 73 -88 25 -24 45 -48 45 -55 0 -13 13 -30 63 -79 20 -21 37 -42 37 -48 0 -5 14 -25 30 -43 17 -18 30 -37 30 -42 0 -4 7 -8 15 -8 8 0 30 -13 48 -30 19 -16 37 -30 41 -30 3 0 14 -7 24 -15 50 -44 82 -65 101 -65 12 0 21 -4 21 -9 0 -8 72 -51 85 -51 8 0 5 61 -4 99 -25 94 -44 192 -52 256 -4 39 -13 104 -20 145 -6 41 -13 95 -14 120 -2 25 -9 74 -16 110 -7 36 -13 88 -13 117 -1 28 -4 54 -7 57 -12 13 -172 36 -204 30 -19 -3 -55 -20 -80 -36 -42 -28 -48 -29 -78 -17 -17 7 -50 30 -71 51 -49 47 -81 49 -148 8 -60 -37 -78 -37 -151 0 -79 40 -111 43 -183 20z"/>
<path d="M1770 4522 c-93 -48 -149 -83 -179 -110 -16 -15 -77 -67 -136 -117 -60 -49 -114 -97 -121 -105 -110 -131 -208 -267 -237 -330 -20 -44 -57 -201 -57 -242 0 -40 30 -108 47 -108 7 0 13 6 13 14 0 8 11 36 24 63 13 26 26 62 29 80 14 71 167 244 282 318 33 22 95 72 137 112 46 44 85 73 98 73 12 0 36 11 53 24 18 14 60 32 94 42 60 17 64 16 104 -2 47 -20 117 -86 199 -186 30 -37 58 -67 62 -67 10 -1 90 -88 104 -113 6 -11 31 -33 55 -49 72 -47 171 -122 206 -156 18 -18 39 -33 47 -33 8 0 19 -6 23 -13 4 -7 22 -21 38 -32 17 -10 35 -23 42 -29 35 -31 78 -56 95 -56 13 0 76 -31 135 -66 17 -10 35 -15 39 -11 4 4 2 30 -4 58 -7 28 -12 66 -12 85 0 26 -8 43 -32 67 -37 36 -88 67 -112 67 -9 0 -16 5 -16 10 0 6 -8 13 -17 17 -10 3 -41 23 -68 43 -28 20 -60 40 -73 44 -12 4 -22 11 -22 16 0 5 -18 19 -40 30 -44 22 -101 75 -145 135 -16 22 -50 63 -76 92 -25 28 -62 75 -83 105 -92 133 -238 300 -288 330 -20 13 -56 22 -93 24 -51 4 -68 0 -115 -24z"/>
<path d="M3539 4287 c4 -17 6 -53 5 -79 -2 -27 1 -48 7 -48 5 0 9 -15 8 -32 -1 -46 29 -209 43 -233 17 -30 27 -108 16 -128 -6 -12 -6 -23 2 -33 7 -7 15 -44 17 -81 3 -38 9 -72 13 -78 15 -20 20 -105 8 -125 -8 -13 -9 -23 -3 -29 20 -20 138 -43 194 -39 33 3 90 -3 145 -15 50 -10 115 -21 145 -24 l54 -5 -6 67 c-7 77 -22 105 -80 156 -39 34 -40 38 -29 63 27 60 -10 138 -79 166 -25 11 -29 17 -23 34 3 12 9 43 11 69 4 41 0 55 -28 102 -38 63 -61 78 -124 79 -53 1 -75 21 -75 68 0 51 -117 151 -201 171 -26 7 -27 6 -20 -26z"/>
<path d="M1794 4151 c-17 -10 -41 -22 -55 -26 -34 -11 -123 -79 -172 -131 -23 -25 -61 -54 -85 -65 -83 -41 -242 -218 -242 -270 0 -8 -7 -27 -16 -44 -20 -36 -23 -210 -4 -244 6 -12 12 -41 12 -63 0 -43 41 -118 90 -168 14 -14 33 -37 42 -52 10 -15 25 -30 34 -33 10 -2 26 -18 37 -35 11 -16 24 -30 29 -30 4 0 21 -10 36 -22 16 -13 37 -30 48 -38 11 -8 50 -43 88 -76 81 -72 230 -175 253 -176 18 0 97 27 123 42 10 6 25 10 33 10 9 0 26 7 40 16 13 8 37 17 54 19 45 6 158 63 223 112 31 24 61 43 66 43 6 0 20 11 33 25 13 13 30 25 37 25 7 0 38 17 69 38 31 20 84 55 117 77 256 168 307 226 228 263 -20 9 -41 23 -45 30 -4 6 -13 12 -19 12 -5 0 -48 18 -94 39 -93 44 -213 124 -283 190 -43 40 -60 54 -151 115 -47 31 -162 149 -336 344 -48 53 -107 92 -141 92 -10 0 -32 -8 -49 -19z m199 -237 c72 -37 258 -210 312 -290 47 -69 84 -106 143 -141 23 -14 42 -29 42 -34 0 -5 -17 -9 -38 -9 -101 0 -200 63 -277 175 -42 61 -73 94 -167 180 -48 44 -94 75 -111 75 -9 0 -30 -16 -48 -35 -19 -19 -40 -35 -48 -35 -20 0 -101 40 -101 50 0 16 76 65 110 71 71 12 151 9 183 -7z m-489 -357 c9 -14 4 -23 -26 -47 -52 -43 -67 -96 -44 -149 10 -21 29 -45 43 -52 29 -15 75 -78 67 -91 -15 -23 -134 10 -134 38 0 7 -8 15 -17 18 -28 9 -68 66 -87 122 -16 48 -16 54 -1 86 21 43 75 80 128 89 52 8 58 7 71 -14z m618 -43 c29 -9 110 -65 135 -94 12 -14 29 -39 38 -57 18 -36 90 -91 155 -117 44 -17 90 -52 90 -68 0 -4 -10 -8 -22 -8 -49 0 -124 32 -207 87 -47 32 -99 64 -116 71 -16 7 -53 39 -81 70 l-51 57 -75 -38 c-41 -20 -82 -37 -90 -37 -8 0 -24 -12 -34 -26 -52 -72 -49 -70 -77 -51 -15 9 -42 17 -62 17 -24 0 -35 4 -35 15 0 8 4 15 9 15 5 0 12 8 16 19 3 10 27 30 54 44 27 15 54 34 61 42 7 8 19 15 27 15 8 0 34 11 57 24 24 13 54 26 67 28 31 5 116 0 141 -8z m-312 -294 c3 -19 16 -55 30 -79 14 -24 30 -53 37 -65 18 -31 109 -126 122 -126 6 0 11 -5 11 -11 0 -6 11 -20 25 -31 30 -24 34 -58 6 -58 -11 0 -23 5 -26 10 -4 6 -15 8 -26 5 -21 -7 -84 20 -102 44 -7 9 -25 26 -40 38 -15 12 -47 46 -70 75 -23 29 -45 55 -49 56 -5 2 -8 10 -8 18 0 8 -4 14 -8 14 -11 0 -42 89 -42 119 0 15 5 21 13 18 8 -3 29 -1 48 3 59 14 73 9 79 -30z"/>
<path d="M3682 3299 c7 -21 7 -38 -1 -57 -6 -15 -10 -41 -9 -59 1 -34 1 -34 173 -59 17 -2 41 -7 55 -9 14 -3 43 -6 65 -7 21 -1 51 -7 65 -15 14 -7 34 -13 44 -13 11 0 33 -4 50 -10 113 -35 167 -47 214 -47 l52 0 0 48 c0 26 -4 50 -9 54 -6 3 -13 26 -17 50 -7 52 -37 82 -88 89 -17 2 -83 12 -146 21 -63 9 -128 20 -145 25 -16 4 -94 11 -172 14 l-142 5 11 -30z"/>
<path d="M3591 3061 c-35 -33 -41 -61 -12 -61 10 0 21 -7 25 -15 3 -9 18 -15 40 -15 19 0 54 -8 78 -19 25 -10 82 -21 133 -25 142 -10 195 -18 201 -28 3 -5 14 -6 25 -3 11 4 19 2 19 -4 0 -6 9 -11 20 -11 11 0 38 -7 60 -16 35 -14 40 -20 40 -49 0 -18 -7 -38 -15 -45 -8 -7 -12 -16 -9 -21 3 -5 -2 -9 -10 -9 -8 0 -19 -7 -24 -16 -12 -21 -111 -29 -118 -9 -3 7 4 31 15 54 12 22 21 44 21 50 0 14 -27 21 -124 32 -169 19 -211 26 -306 54 -110 32 -120 38 -120 74 l0 26 -18 -28 c-10 -15 -22 -24 -25 -20 -4 3 -7 1 -7 -5 0 -12 -113 -132 -125 -132 -3 0 -20 -14 -38 -30 -18 -17 -41 -33 -52 -36 -11 -4 -33 -17 -50 -29 -16 -12 -50 -34 -75 -47 -125 -69 -167 -93 -189 -110 -13 -10 -27 -15 -32 -12 -5 3 -9 1 -9 -3 0 -5 -14 -17 -31 -27 -17 -10 -47 -34 -66 -52 -19 -19 -38 -34 -43 -34 -4 0 -23 -15 -41 -33 -19 -19 -44 -39 -56 -46 -13 -6 -23 -15 -23 -19 0 -11 63 -37 135 -57 33 -9 78 -22 100 -29 158 -53 344 -102 371 -98 12 2 33 24 53 56 18 30 40 61 49 69 25 22 81 34 134 27 43 -5 53 -2 125 42 87 53 178 137 198 182 11 26 10 36 -16 90 -40 85 -47 90 -191 127 -24 6 -62 19 -86 30 -23 10 -48 19 -55 19 -6 0 -19 5 -27 10 -13 9 -13 11 0 20 22 14 77 12 113 -4 40 -18 90 -32 142 -41 21 -4 51 -15 65 -25 14 -10 27 -18 30 -18 11 -1 47 -15 76 -30 20 -9 46 -40 71 -81 34 -55 40 -73 36 -104 -4 -29 -10 -39 -29 -43 -13 -3 -24 -12 -24 -20 0 -8 -4 -14 -10 -14 -5 0 -10 -9 -10 -20 0 -11 -4 -20 -10 -20 -5 0 -19 -9 -31 -21 -11 -11 -28 -19 -37 -17 -9 2 -33 -12 -52 -31 -19 -18 -50 -40 -69 -48 -55 -23 -62 -34 -43 -66 13 -21 22 -26 37 -22 11 4 31 9 45 12 23 5 71 34 96 58 6 5 30 26 54 45 56 46 72 62 90 90 18 28 43 55 62 66 7 5 21 21 31 37 10 15 22 27 28 27 6 0 25 17 42 37 18 20 46 53 63 72 17 20 39 51 49 70 9 18 32 48 50 67 18 18 41 47 51 63 10 17 22 31 26 31 4 0 8 18 8 41 l0 41 -58 -7 c-36 -4 -68 -2 -87 5 -17 7 -43 14 -60 16 -16 3 -48 11 -71 19 -48 18 -181 44 -279 56 -88 10 -121 15 -165 29 -46 13 -44 14 -79 -19z"/>
<path d="M2251 2489 c-31 -18 -33 -23 -26 -57 11 -61 36 -94 83 -111 43 -16 44 -15 63 8 12 15 19 39 19 66 0 36 -5 46 -27 60 -16 10 -36 26 -46 36 -22 24 -24 24 -66 -2z"/>
<path d="M3474 2222 c-22 -15 -44 -58 -44 -85 0 -43 48 -97 86 -97 45 0 65 20 71 71 5 41 2 47 -33 82 -36 36 -58 44 -80 29z"/>
</g>
<g id="layer107" fill="#ffffff" stroke="none">
<path d="M2475 5585 c-218 -25 -446 -80 -653 -156 -249 -92 -565 -272 -782 -445 -109 -87 -337 -315 -424 -424 -277 -346 -480 -781 -566 -1206 -68 -339 -68 -769 0 -1108 86 -425 289 -860 566 -1206 87 -109 315 -337 424 -424 350 -279 790 -485 1210 -565 215 -41 272 -46 550 -46 280 0 351 6 555 46 422 83 857 287 1205 565 109 87 337 315 424 424 327 410 540 919 601 1435 30 261 16 623 -35 879 -86 425 -289 860 -566 1206 -87 109 -315 337 -424 424 -350 279 -786 483 -1210 566 -257 50 -621 64 -875 35z m-440 -808 c22 -6 49 -17 60 -24 27 -18 44 -16 96 9 34 17 60 22 112 21 63 -1 71 -4 107 -37 l39 -35 48 15 c75 24 128 28 211 15 142 -23 168 -32 216 -77 43 -40 48 -42 98 -39 84 5 202 -30 253 -75 11 -10 40 -20 65 -24 73 -11 170 -80 170 -121 0 -18 11 -23 83 -39 126 -28 241 -108 267 -185 14 -44 17 -46 61 -52 63 -9 104 -33 119 -69 7 -16 16 -30 21 -30 5 0 9 -9 9 -19 0 -11 4 -23 10 -26 10 -6 12 -21 10 -101 0 -43 3 -52 22 -63 29 -16 78 -95 78 -126 0 -13 -5 -36 -12 -50 -10 -23 -10 -28 4 -36 9 -5 34 -25 56 -45 45 -40 55 -72 57 -179 1 -61 4 -70 19 -67 27 5 85 -18 110 -42 12 -13 28 -25 35 -27 14 -5 51 -109 47 -136 -2 -10 3 -32 10 -48 7 -17 12 -61 13 -99 0 -81 -20 -122 -101 -208 -10 -10 -18 -22 -18 -28 0 -5 -4 -10 -9 -10 -5 0 -20 -17 -32 -37 -13 -21 -43 -59 -68 -84 -25 -25 -58 -60 -72 -76 -15 -17 -35 -37 -46 -44 -10 -8 -34 -34 -53 -58 -19 -25 -55 -66 -80 -91 -49 -51 -191 -150 -213 -150 -8 0 -20 -7 -27 -15 -7 -8 -27 -17 -46 -21 -42 -8 -51 -20 -30 -43 9 -10 16 -24 16 -33 0 -8 9 -23 20 -33 52 -47 84 -179 77 -311 -14 -265 -131 -525 -298 -664 -74 -62 -295 -169 -364 -176 -5 0 -23 -6 -39 -13 -16 -6 -41 -13 -56 -15 -15 -2 -33 -7 -40 -11 -24 -15 -204 -34 -290 -31 -47 2 -98 9 -115 17 -16 7 -34 13 -40 13 -5 1 -20 11 -34 24 -13 12 -26 20 -28 18 -2 -2 -20 2 -41 9 -27 10 -37 19 -37 35 0 25 -58 50 -99 43 -36 -7 -146 45 -186 88 -19 21 -53 50 -75 66 -42 29 -99 89 -127 133 -9 14 -32 37 -51 50 -31 21 -60 64 -125 187 -22 40 -66 221 -82 333 -5 36 -14 81 -20 100 -28 96 4 261 69 345 43 58 130 105 239 132 73 17 74 17 68 46 -3 17 -1 36 5 43 12 15 -3 25 -31 21 -33 -4 -99 16 -121 36 -12 12 -30 23 -39 24 -25 4 -204 122 -251 166 -10 9 -23 17 -29 17 -5 0 -10 7 -10 15 0 8 -7 15 -15 15 -9 0 -18 6 -21 14 -3 8 -19 18 -34 21 -18 4 -37 19 -49 39 -11 18 -32 38 -46 44 -14 6 -25 18 -25 27 0 8 -7 15 -16 15 -20 0 -94 61 -94 78 0 6 -4 12 -10 12 -5 0 -10 6 -10 14 0 8 -16 23 -35 35 -21 12 -42 36 -51 56 -8 19 -18 35 -22 35 -8 0 -52 92 -52 109 0 6 -7 11 -15 11 -9 0 -20 10 -26 23 -5 12 -21 42 -34 67 -13 25 -24 50 -24 57 -1 7 -10 17 -21 23 -11 6 -20 16 -20 23 0 7 -11 25 -24 42 -19 24 -22 35 -15 60 5 16 9 51 9 77 0 26 7 65 15 85 7 21 16 52 19 70 5 40 43 119 76 159 14 17 60 79 103 137 43 59 82 107 88 107 5 0 49 39 98 88 121 119 154 146 244 195 58 31 79 48 83 67 6 26 17 55 42 105 37 78 199 125 317 92z"/>
<path d="M1890 4704 c-39 -10 -63 -24 -82 -46 -16 -18 -28 -36 -28 -40 0 -4 32 -8 71 -8 91 0 182 -24 234 -61 23 -17 66 -61 96 -100 30 -38 61 -71 69 -74 8 -3 27 -27 42 -53 15 -27 50 -71 78 -100 27 -28 50 -56 50 -62 0 -12 1 -14 68 -84 23 -24 42 -51 42 -60 0 -9 4 -16 9 -16 6 0 18 -13 28 -30 9 -16 22 -30 29 -30 11 0 73 -44 105 -75 9 -8 21 -15 27 -15 6 0 22 -11 36 -25 14 -14 34 -25 46 -25 11 0 20 -4 20 -9 0 -8 73 -51 87 -51 9 0 -5 92 -41 255 -8 39 -17 90 -20 115 -2 25 -10 81 -17 125 -7 44 -13 98 -15 120 -2 22 -8 67 -14 100 -6 33 -13 89 -14 125 -4 73 2 68 -119 90 -60 11 -73 10 -115 -5 -26 -10 -58 -26 -71 -37 -26 -20 -56 -24 -66 -8 -3 6 -13 10 -21 10 -8 0 -30 18 -50 40 -45 50 -80 52 -144 10 -56 -37 -77 -37 -154 -1 -82 40 -102 43 -166 25z"/>
<path d="M3540 4292 c4 -17 6 -53 4 -81 -2 -29 1 -51 6 -51 6 0 10 -12 9 -27 -1 -28 18 -145 29 -173 3 -8 4 -23 3 -32 -1 -9 4 -27 12 -40 19 -30 30 -99 18 -117 -6 -9 -4 -26 5 -47 8 -18 14 -57 14 -87 0 -29 5 -58 10 -63 10 -10 16 -103 9 -138 -6 -28 61 -46 186 -50 55 -2 132 -11 170 -21 39 -9 94 -19 124 -22 l54 -6 -6 66 c-7 74 -23 105 -82 158 -37 34 -39 38 -27 63 15 34 6 98 -19 125 -10 11 -35 28 -55 37 -29 14 -34 21 -28 38 3 12 9 42 11 67 5 52 -9 88 -58 144 -28 31 -37 35 -80 35 -58 0 -89 24 -89 68 0 54 -109 147 -207 176 -20 6 -21 5 -13 -22z"/>
</g>


</svg>